<?xml version="1.0" encoding="us-ascii" standalone="no"?><svg xmlns="http://www.w3.org/2000/svg" xmlns:xlink="http://www.w3.org/1999/xlink" contentStyleType="text/css" height="978px" preserveAspectRatio="none" style="width:693px;height:978px;background:#FFFFFF;" version="1.1" viewBox="0 0 693 978" width="693px" zoomAndPan="magnify"><defs/><g><g id="Default"><rect fill="#F1F1F1" height="50.2656" rx="12.5" ry="12.5" style="stroke:#181818;stroke-width:0.5;" width="71" x="222.5" y="87"/><line style="stroke:#181818;stroke-width:0.5;" x1="222.5" x2="293.5" y1="113.2969" y2="113.2969"/><text fill="#000000" font-family="sans-serif" font-size="14" lengthAdjust="spacing" textLength="49" x="233.5" y="104.9951">Default</text><text fill="#000000" font-family="sans-serif" font-size="12" lengthAdjust="spacing" textLength="51" x="227.5" y="129.4355">OnState</text></g><ellipse cx="258" cy="16" fill="#222222" rx="10" ry="10" style="stroke:#222222;stroke-width:1.0;"/><g id="Injured"><rect fill="#F1F1F1" height="50.2656" rx="12.5" ry="12.5" style="stroke:#181818;stroke-width:0.5;" width="71" x="208.5" y="229"/><line style="stroke:#181818;stroke-width:0.5;" x1="208.5" x2="279.5" y1="255.2969" y2="255.2969"/><text fill="#000000" font-family="sans-serif" font-size="14" lengthAdjust="spacing" textLength="47" x="220.5" y="246.9951">Injured</text><text fill="#000000" font-family="sans-serif" font-size="12" lengthAdjust="spacing" textLength="51" x="213.5" y="271.4355">OnState</text></g><g id="Unconscious"><rect fill="#F1F1F1" height="64.2344" rx="12.5" ry="12.5" style="stroke:#181818;stroke-width:0.5;" width="110" x="262" y="698"/><line style="stroke:#181818;stroke-width:0.5;" x1="262" x2="372" y1="724.2969" y2="724.2969"/><text fill="#000000" font-family="sans-serif" font-size="14" lengthAdjust="spacing" textLength="90" x="272" y="715.9951">Unconscious</text><text fill="#000000" font-family="sans-serif" font-size="12" lengthAdjust="spacing" textLength="51" x="267" y="740.4355">OnEnter</text><text fill="#000000" font-family="sans-serif" font-size="12" lengthAdjust="spacing" textLength="51" x="267" y="754.4043">OnState</text></g><g id="CardiacArrest"><rect fill="#F1F1F1" height="78.2031" rx="12.5" ry="12.5" style="stroke:#181818;stroke-width:0.5;" width="112" x="370" y="528"/><line style="stroke:#181818;stroke-width:0.5;" x1="370" x2="482" y1="554.2969" y2="554.2969"/><text fill="#000000" font-family="sans-serif" font-size="14" lengthAdjust="spacing" textLength="92" x="380" y="545.9951">CardiacArrest</text><text fill="#000000" font-family="sans-serif" font-size="12" lengthAdjust="spacing" textLength="51" x="375" y="570.4355">OnEnter</text><text fill="#000000" font-family="sans-serif" font-size="12" lengthAdjust="spacing" textLength="51" x="375" y="584.4043">OnState</text><text fill="#000000" font-family="sans-serif" font-size="12" lengthAdjust="spacing" textLength="39" x="375" y="598.373">OnExit</text></g><g id="FatalInjury"><rect fill="#F1F1F1" height="50.2656" rx="12.5" ry="12.5" style="stroke:#181818;stroke-width:0.5;" width="88" x="525" y="371"/><line style="stroke:#181818;stroke-width:0.5;" x1="525" x2="613" y1="397.2969" y2="397.2969"/><text fill="#000000" font-family="sans-serif" font-size="14" lengthAdjust="spacing" textLength="68" x="535" y="388.9951">FatalInjury</text><text fill="#000000" font-family="sans-serif" font-size="12" lengthAdjust="spacing" textLength="51" x="530" y="413.4355">OnEnter</text></g><g id="Dead"><rect fill="#F1F1F1" height="50.2656" rx="12.5" ry="12.5" style="stroke:#181818;stroke-width:0.5;" width="71" x="556.5" y="839"/><line style="stroke:#181818;stroke-width:0.5;" x1="556.5" x2="627.5" y1="865.2969" y2="865.2969"/><text fill="#000000" font-family="sans-serif" font-size="14" lengthAdjust="spacing" textLength="37" x="573.5" y="856.9951">Dead</text><text fill="#000000" font-family="sans-serif" font-size="12" lengthAdjust="spacing" textLength="51" x="561.5" y="881.4355">OnEnter</text></g><ellipse cx="592" cy="961" fill="none" rx="11" ry="11" style="stroke:#222222;stroke-width:1.0;"/><ellipse cx="592" cy="961" fill="#222222" rx="6" ry="6" style="stroke:#222222;stroke-width:1.0;"/><!--link *start* to Default--><g id="link_*start*_Default"><path d="M258,26.01 C258,39.89 258,60.97 258,80.84 " fill="none" id="*start*-to-Default" style="stroke:#181818;stroke-width:1.0;"/><polygon fill="#181818" points="258,86.84,262,77.84,258,81.84,254,77.84,258,86.84" style="stroke:#181818;stroke-width:1.0;"/></g><!--link Default to Injured--><g id="link_Default_Injured"><path d="M222.3,116.62 C190.78,121.92 146.57,134.96 125,167 C100.09,204 159.0962,228.8655 202.5762,241.9955 " fill="none" id="Default-to-Injured" style="stroke:#181818;stroke-width:1.0;"/><polygon fill="#181818" points="208.32,243.73,200.8606,237.299,203.5335,242.2846,198.5479,244.9575,208.32,243.73" style="stroke:#181818;stroke-width:1.0;"/><text fill="#000000" font-family="sans-serif" font-size="13" lengthAdjust="spacing" textLength="43" x="148.5" y="180.0669">Injured</text><text fill="#000000" font-family="sans-serif" font-size="13" lengthAdjust="spacing" textLength="88" x="126" y="195.1997">LoweredVitals</text></g><!--link Injured to Default--><g id="link_Injured_Default"><path d="M246.42,228.78 C248.99,203.08 252.4339,168.6803 254.9939,143.0403 " fill="none" id="Injured-to-Default" style="stroke:#181818;stroke-width:1.0;"/><polygon fill="#181818" points="255.59,137.07,250.7156,145.6281,255.0932,142.0453,258.6761,146.4229,255.59,137.07" style="stroke:#181818;stroke-width:1.0;"/><text fill="#000000" font-family="sans-serif" font-size="13" lengthAdjust="spacing" textLength="50" x="254" y="187.5669">FullHeal</text></g><!--link Default to Unconscious--><g id="link_Default_Unconscious"><path d="M222.43,116.37 C152.97,125.11 6,155.16 6,253 C6,253 6,253 6,568 C6,681.85 166.4254,714.6293 255.7954,724.3793 " fill="none" id="Default-to-Unconscious" style="stroke:#181818;stroke-width:1.0;"/><polygon fill="#181818" points="261.76,725.03,253.2469,720.0775,256.7895,724.4877,252.3793,728.0303,261.76,725.03" style="stroke:#181818;stroke-width:1.0;"/><text fill="#000000" font-family="sans-serif" font-size="13" lengthAdjust="spacing" textLength="77" x="7.5" y="385.5669">CriticalInjury</text><text fill="#000000" font-family="sans-serif" font-size="13" lengthAdjust="spacing" textLength="78" x="7" y="400.6997">CriticalVitals</text><text fill="#000000" font-family="sans-serif" font-size="13" lengthAdjust="spacing" textLength="61" x="15.5" y="415.8325">KnockOut</text></g><!--link Default to CardiacArrest--><g id="link_Default_CardiacArrest"><path d="M286.78,137.15 C295.6,145.79 304.64,156.11 311,167 C329.58,198.83 390.3502,428.6131 414.6602,522.1131 " fill="none" id="Default-to-CardiacArrest" style="stroke:#181818;stroke-width:1.0;"/><polygon fill="#181818" points="416.17,527.92,417.7766,518.2031,414.9118,523.0809,410.034,520.2161,416.17,527.92" style="stroke:#181818;stroke-width:1.0;"/><text fill="#000000" font-family="sans-serif" font-size="13" lengthAdjust="spacing" textLength="61" x="366" y="322.0669">FatalVials</text><text fill="#000000" font-family="sans-serif" font-size="13" lengthAdjust="spacing" textLength="57" x="368" y="337.1997">Bleedout</text></g><!--link Default to FatalInjury--><g id="link_Default_FatalInjury"><path d="M293.98,126.65 C356.25,152.24 483.52,213.61 547,309 C559.29,327.48 563.9409,346.4308 566.3309,364.6808 " fill="none" id="Default-to-FatalInjury" style="stroke:#181818;stroke-width:1.0;"/><polygon fill="#181818" points="567.11,370.63,569.9075,361.1868,566.4607,365.6723,561.9752,362.2256,567.11,370.63" style="stroke:#181818;stroke-width:1.0;"/><text fill="#000000" font-family="sans-serif" font-size="13" lengthAdjust="spacing" textLength="65" x="522" y="258.5669">FatalInjury</text></g><!--link Injured to Unconscious--><g id="link_Injured_Unconscious"><path d="M220.78,279.23 C182.79,321.89 113.69,413.88 136,498 C158.3,582.08 174.95,603.21 233,668 C242.74,678.87 249.9022,685.4073 261.7322,694.1373 " fill="none" id="Injured-to-Unconscious" style="stroke:#181818;stroke-width:1.0;"/><polygon fill="#181818" points="266.56,697.7,261.6935,689.1375,262.5369,694.7311,256.9432,695.5745,266.56,697.7" style="stroke:#181818;stroke-width:1.0;"/><text fill="#000000" font-family="sans-serif" font-size="13" lengthAdjust="spacing" textLength="77" x="137.5" y="464.0669">CriticalInjury</text><text fill="#000000" font-family="sans-serif" font-size="13" lengthAdjust="spacing" textLength="78" x="137" y="479.1997">CriticalVitals</text><text fill="#000000" font-family="sans-serif" font-size="13" lengthAdjust="spacing" textLength="61" x="145.5" y="494.3325">KnockOut</text></g><!--link Unconscious to Injured--><g id="link_Unconscious_Injured"><path d="M304.96,697.89 C301.5,688.38 297.89,677.83 295,668 C273.14,593.63 266.62,574.79 256,498 C245.01,418.5 243.7104,329.15 243.7804,285.27 " fill="none" id="Unconscious-to-Injured" style="stroke:#181818;stroke-width:1.0;"/><polygon fill="#181818" points="243.79,279.27,239.7756,288.2636,243.782,284.27,247.7756,288.2764,243.79,279.27" style="stroke:#181818;stroke-width:1.0;"/><text fill="#000000" font-family="sans-serif" font-size="13" lengthAdjust="spacing" textLength="52" x="257" y="479.0669">WakeUp</text></g><!--link Injured to CardiacArrest--><g id="link_Injured_CardiacArrest"><path d="M279.75,256.86 C315.87,260.81 370.33,272.82 399,309 C425.16,342.01 427.5299,458.8303 426.8999,521.9803 " fill="none" id="Injured-to-CardiacArrest" style="stroke:#181818;stroke-width:1.0;"/><polygon fill="#181818" points="426.84,527.98,430.9296,519.0204,426.8899,522.9802,422.93,518.9405,426.84,527.98" style="stroke:#181818;stroke-width:1.0;"/><text fill="#000000" font-family="sans-serif" font-size="13" lengthAdjust="spacing" textLength="66" x="424" y="393.0669">FatalVitals</text><text fill="#000000" font-family="sans-serif" font-size="13" lengthAdjust="spacing" textLength="57" x="428.5" y="408.1997">Bleedout</text></g><!--link Injured to FatalInjury--><g id="link_Injured_FatalInjury"><path d="M279.82,259.84 C320.58,266.45 388.21,280.86 440,309 C458.81,319.22 458.66,328.45 476,341 C491.28,352.05 503.757,359.837 519.587,368.787 " fill="none" id="Injured-to-FatalInjury" style="stroke:#181818;stroke-width:1.0;"/><polygon fill="#181818" points="524.81,371.74,518.9442,363.8285,520.4575,369.2792,515.0068,370.7925,524.81,371.74" style="stroke:#181818;stroke-width:1.0;"/><text fill="#000000" font-family="sans-serif" font-size="13" lengthAdjust="spacing" textLength="65" x="477" y="329.5669">FatalInjury</text></g><!--link Unconscious to Dead--><g id="link_Unconscious_Dead"><path d="M372.32,757.55 C427.22,783.9 504.3006,820.9041 551.0206,843.3241 " fill="none" id="Unconscious-to-Dead" style="stroke:#181818;stroke-width:1.0;"/><polygon fill="#181818" points="556.43,845.92,550.0465,838.42,551.9222,843.7568,546.5853,845.6325,556.43,845.92" style="stroke:#181818;stroke-width:1.0;"/><text fill="#000000" font-family="sans-serif" font-size="13" lengthAdjust="spacing" textLength="51" x="480" y="805.0669">DeathAI</text></g><!--link Unconscious to CardiacArrest--><g id="link_Unconscious_CardiacArrest"><path d="M372.11,706.85 C388.88,697.38 405.61,684.6 416,668 C427.38,649.81 430.2066,632.0096 429.9866,612.1996 " fill="none" id="Unconscious-to-CardiacArrest" style="stroke:#181818;stroke-width:1.0;"/><polygon fill="#181818" points="429.92,606.2,426.0202,615.2439,429.9755,611.1997,434.0197,615.155,429.92,606.2" style="stroke:#181818;stroke-width:1.0;"/><text fill="#000000" font-family="sans-serif" font-size="13" lengthAdjust="spacing" textLength="66" x="428" y="649.0669">FatalVitals</text><text fill="#000000" font-family="sans-serif" font-size="13" lengthAdjust="spacing" textLength="57" x="432.5" y="664.1997">Bleedout</text></g><!--link CardiacArrest to Unconscious--><g id="link_CardiacArrest_Unconscious"><path d="M369.82,586.67 C347.04,597.32 323.06,613.21 310,636 C299.37,654.54 300.1552,672.8592 304.7752,691.8992 " fill="none" id="CardiacArrest-to-Unconscious" style="stroke:#181818;stroke-width:1.0;"/><polygon fill="#181818" points="306.19,697.73,307.955,688.0406,305.011,692.871,300.1806,689.927,306.19,697.73" style="stroke:#181818;stroke-width:1.0;"/><text fill="#000000" font-family="sans-serif" font-size="13" lengthAdjust="spacing" textLength="96" x="311" y="656.5669">CPRSucceeded</text></g><!--link Unconscious to FatalInjury--><g id="link_Unconscious_FatalInjury"><path d="M372.19,723.96 C413.23,717.42 467.98,702.42 503,668 C571.72,600.45 573.7769,480.1526 571.1569,427.2726 " fill="none" id="Unconscious-to-FatalInjury" style="stroke:#181818;stroke-width:1.0;"/><polygon fill="#181818" points="570.86,421.28,567.3103,430.4669,571.1074,426.2739,575.3005,430.071,570.86,421.28" style="stroke:#181818;stroke-width:1.0;"/><text fill="#000000" font-family="sans-serif" font-size="13" lengthAdjust="spacing" textLength="65" x="566" y="571.5669">FatalInjury</text></g><!--link FatalInjury to CardiacArrest--><g id="link_FatalInjury_CardiacArrest"><path d="M524.84,409.48 C502.53,417.88 476.72,431.12 460,451 C441.84,472.59 434.338,497.617 430.398,521.977 " fill="none" id="FatalInjury-to-CardiacArrest" style="stroke:#181818;stroke-width:1.0;"/><polygon fill="#181818" points="429.44,527.9,434.8257,519.6541,430.2383,522.9641,426.9283,518.3768,429.44,527.9" style="stroke:#181818;stroke-width:1.0;"/><text fill="#000000" font-family="sans-serif" font-size="13" lengthAdjust="spacing" textLength="96" x="461" y="479.0669">SecondChance</text></g><!--link FatalInjury to Dead--><g id="link_FatalInjury_Dead"><path d="M586.85,421.05 C604.32,446.22 629.76,487.63 640,528 C647.01,555.64 648.91,713.24 638,762 C631.82,789.64 620.4823,813.5942 609.4623,833.4442 " fill="none" id="FatalInjury-to-Dead" style="stroke:#181818;stroke-width:1.0;"/><polygon fill="#181818" points="606.55,838.69,614.4156,832.7628,608.9769,834.3185,607.4212,828.8798,606.55,838.69" style="stroke:#181818;stroke-width:1.0;"/><text fill="#000000" font-family="sans-serif" font-size="13" lengthAdjust="spacing" textLength="39" x="646" y="656.5669">Death</text></g><!--link CardiacArrest to Dead--><g id="link_CardiacArrest_Dead"><path d="M476.35,606.21 C486.07,615.22 495.54,625.33 503,636 C549.23,702.07 574.5141,789.6819 585.1541,833.1719 " fill="none" id="CardiacArrest-to-Dead" style="stroke:#181818;stroke-width:1.0;"/><polygon fill="#181818" points="586.58,839,588.3266,829.3073,585.3918,834.1432,580.5558,831.2084,586.58,839" style="stroke:#181818;stroke-width:1.0;"/><text fill="#000000" font-family="sans-serif" font-size="13" lengthAdjust="spacing" textLength="51" x="571" y="712.0669">DeathAI</text><text fill="#000000" font-family="sans-serif" font-size="13" lengthAdjust="spacing" textLength="52" x="570.5" y="727.1997">Timeout</text><text fill="#000000" font-family="sans-serif" font-size="13" lengthAdjust="spacing" textLength="65" x="564" y="742.3325">FatalInjury</text><text fill="#000000" font-family="sans-serif" font-size="13" lengthAdjust="spacing" textLength="57" x="568" y="757.4653">Bleedout</text></g><!--link Dead to *end*--><g id="link_Dead_*end*"><path d="M592,889.46 C592,909.04 592,929.49 592,943.8 " fill="none" id="Dead-to-*end*" style="stroke:#181818;stroke-width:1.0;"/><polygon fill="#181818" points="592,949.8,596,940.8,592,944.8,588,940.8,592,949.8" style="stroke:#181818;stroke-width:1.0;"/></g><!--SRC=[dPF1JiCm38RlUOgUaVO279161s82gOWoE10ELkffOS55QIBWxKcQHakQJI1EIUp_j_rPxGgtO9Mfpgk6MWC6sSlPQxLON5Iha67JESRMz6OrTauztJZTzP_eBa_IW1eoyOP4JuEGlHsSeTRII05gD7vpYkzWv7HBlTWtDkzNW-uaYANMEFWPhy5unsYuL8XTFpECWj0YoiEBiSFiaJH64bfliahT8AWi_K-MjCG95fF3HCTlDFb03LsHGLr40sSQ3QpWr-0EirkkY_HXKS-mnyr78VWRoTnr4gPYBCz5cZHwh6-BhaDNxu045k8Kah6vDROeus5bH_HVqip2vIuvFSftTFISadcIfPG5Pb_M_KDhXN1gx1YRYiTXnwVtk5_q1m00]--></g></svg>