<?xml version="1.0" encoding="us-ascii" standalone="no"?><svg xmlns="http://www.w3.org/2000/svg" xmlns:xlink="http://www.w3.org/1999/xlink" contentStyleType="text/css" height="1007px" preserveAspectRatio="none" style="width:593px;height:1007px;background:#FFFFFF;" version="1.1" viewBox="0 0 593 1007" width="593px" zoomAndPan="magnify"><defs/><g><rect fill="none" height="985.834" style="stroke:#000000;stroke-width:1.5;" width="571.5" x="11" y="11"/><path d="M303,11 L303,21.6094 L293,31.6094 L11,31.6094 " fill="none" style="stroke:#000000;stroke-width:1.5;"/><text fill="#000000" font-family="sans-serif" font-size="14" lengthAdjust="spacing" textLength="282" x="14" y="26.5332">Advanced Medical Treatment (excluding OD)</text><ellipse cx="303" cy="51.6094" fill="#222222" rx="10" ry="10" style="stroke:#222222;stroke-width:1.0;"/><rect fill="#F1F1F1" height="35.0938" rx="12.5" ry="12.5" style="stroke:#181818;stroke-width:0.5;" width="103" x="251.5" y="81.6094"/><text fill="#000000" font-family="sans-serif" font-size="12" lengthAdjust="spacing" textLength="83" x="261.5" y="104.0664">Stop bleedings</text><rect fill="#FFFFE0" height="582.4238" style="stroke:#000000;stroke-width:1.5;" width="551.5" x="21" y="126.7031"/><path d="M111,126.7031 L111,137.3125 L101,147.3125 L21,147.3125 " fill="none" style="stroke:#000000;stroke-width:1.5;"/><text fill="#000000" font-family="sans-serif" font-size="14" lengthAdjust="spacing" textLength="80" x="24" y="142.2363">Unconscious</text><rect fill="#FFA07A" height="265.8828" style="stroke:#000000;stroke-width:1.5;" width="465.5" x="67" y="268.1504"/><path d="M167,268.1504 L167,278.7598 L157,288.7598 L67,288.7598 " fill="none" style="stroke:#000000;stroke-width:1.5;"/><text fill="#000000" font-family="sans-serif" font-size="14" lengthAdjust="spacing" textLength="90" x="70" y="283.6836">Cardiac arrest</text><rect fill="#555555" height="6" rx="2.5" ry="2.5" style="stroke:#555555;stroke-width:1.0;" width="445.5" x="77" y="305.7598"/><rect fill="#F1F1F1" height="35.0938" rx="12.5" ry="12.5" style="stroke:#181818;stroke-width:0.5;" width="93" x="89" y="396.3496"/><text fill="#000000" font-family="sans-serif" font-size="12" lengthAdjust="spacing" textLength="73" x="99" y="418.8066">Perform CPR</text><rect fill="#F1F1F1" height="35.0938" rx="12.5" ry="12.5" style="stroke:#181818;stroke-width:0.5;" width="81" x="228" y="398.1855"/><text fill="#000000" font-family="sans-serif" font-size="12" lengthAdjust="spacing" textLength="61" x="238" y="420.6426">Give saline</text><polygon fill="#F1F1F1" points="222,345.5957,315,345.5957,327,359.4316,315,373.2676,222,373.2676,210,359.4316,222,345.5957" style="stroke:#181818;stroke-width:0.5;"/><text fill="#000000" font-family="sans-serif" font-size="11" lengthAdjust="spacing" textLength="18" x="272.5" y="384.6865">yes</text><text fill="#000000" font-family="sans-serif" font-size="11" lengthAdjust="spacing" textLength="93" x="222" y="357.0146">Has at least class II</text><text fill="#000000" font-family="sans-serif" font-size="11" lengthAdjust="spacing" textLength="58" x="222" y="370.8506">hemorrhage</text><text fill="#000000" font-family="sans-serif" font-size="11" lengthAdjust="spacing" textLength="12" x="327" y="357.0146">no</text><polygon fill="#F1F1F1" points="268.5,458.1973,280.5,470.1973,268.5,482.1973,256.5,470.1973,268.5,458.1973" style="stroke:#181818;stroke-width:0.5;"/><rect fill="#F1F1F1" height="35.0938" rx="12.5" ry="12.5" style="stroke:#181818;stroke-width:0.5;" width="118" x="377" y="412.0215"/><text fill="#000000" font-family="sans-serif" font-size="12" lengthAdjust="spacing" textLength="98" x="387" y="434.4785">Inject epinephrine</text><polygon fill="#F1F1F1" points="389.5,331.7598,482.5,331.7598,494.5,359.4316,482.5,387.1035,389.5,387.1035,377.5,359.4316,389.5,331.7598" style="stroke:#181818;stroke-width:0.5;"/><text fill="#000000" font-family="sans-serif" font-size="11" lengthAdjust="spacing" textLength="18" x="440" y="398.5225">yes</text><text fill="#000000" font-family="sans-serif" font-size="11" lengthAdjust="spacing" textLength="93" x="389.5" y="343.1787">Has at most class II</text><text fill="#000000" font-family="sans-serif" font-size="11" lengthAdjust="spacing" textLength="79" x="389.5" y="357.0146">hemorrhage and</text><text fill="#000000" font-family="sans-serif" font-size="11" lengthAdjust="spacing" textLength="76" x="389.5" y="370.8506">last epinephrine</text><text fill="#000000" font-family="sans-serif" font-size="11" lengthAdjust="spacing" textLength="82" x="389.5" y="384.6865">injection &gt; 1 min?</text><text fill="#000000" font-family="sans-serif" font-size="11" lengthAdjust="spacing" textLength="12" x="494.5" y="357.0146">no</text><polygon fill="#F1F1F1" points="436,472.0332,448,484.0332,436,496.0332,424,484.0332,436,472.0332" style="stroke:#181818;stroke-width:0.5;"/><rect fill="#555555" height="6" rx="2.5" ry="2.5" style="stroke:#555555;stroke-width:1.0;" width="445.5" x="77" y="516.0332"/><polygon fill="#F1F1F1" points="260.5,221.2314,345.5,221.2314,357.5,233.2314,345.5,245.2314,260.5,245.2314,248.5,233.2314,260.5,221.2314" style="stroke:#181818;stroke-width:0.5;"/><text fill="#000000" font-family="sans-serif" font-size="11" lengthAdjust="spacing" textLength="18" x="307" y="256.6504">yes</text><text fill="#000000" font-family="sans-serif" font-size="11" lengthAdjust="spacing" textLength="85" x="260.5" y="237.7324">In cardiac arrest?</text><text fill="#000000" font-family="sans-serif" font-size="11" lengthAdjust="spacing" textLength="12" x="236.5" y="230.8145">no</text><polygon fill="#F1F1F1" points="263.5,576.0332,342.5,576.0332,354.5,588.0332,342.5,600.0332,263.5,600.0332,251.5,588.0332,263.5,576.0332" style="stroke:#181818;stroke-width:0.5;"/><text fill="#000000" font-family="sans-serif" font-size="11" lengthAdjust="spacing" textLength="79" x="263.5" y="592.5342">Has stable vitals</text><text fill="#000000" font-family="sans-serif" font-size="11" lengthAdjust="spacing" textLength="12" x="239.5" y="585.6162">no</text><text fill="#000000" font-family="sans-serif" font-size="11" lengthAdjust="spacing" textLength="18" x="354.5" y="585.6162">yes</text><rect fill="#F1F1F1" height="35.0938" rx="12.5" ry="12.5" style="stroke:#181818;stroke-width:0.5;" width="143" x="143.5" y="610.0332"/><text fill="#000000" font-family="sans-serif" font-size="12" lengthAdjust="spacing" textLength="123" x="153.5" y="632.4902">Adjust with medication</text><rect fill="#F1F1F1" height="35.0938" rx="12.5" ry="12.5" style="stroke:#181818;stroke-width:0.5;" width="169" x="306.5" y="610.0332"/><text fill="#000000" font-family="sans-serif" font-size="12" lengthAdjust="spacing" textLength="149" x="316.5" y="632.4902">Give ammonium carbonate</text><polygon fill="#F1F1F1" points="303,651.127,315,663.127,303,675.127,291,663.127,303,651.127" style="stroke:#181818;stroke-width:0.5;"/><polygon fill="#F1F1F1" points="263.5,164.3125,342.5,164.3125,354.5,176.3125,342.5,188.3125,263.5,188.3125,251.5,176.3125,263.5,164.3125" style="stroke:#181818;stroke-width:0.5;"/><text fill="#000000" font-family="sans-serif" font-size="11" lengthAdjust="spacing" textLength="18" x="307" y="199.7314">yes</text><text fill="#000000" font-family="sans-serif" font-size="11" lengthAdjust="spacing" textLength="79" x="263.5" y="180.8135">Is unconscious?</text><text fill="#000000" font-family="sans-serif" font-size="11" lengthAdjust="spacing" textLength="12" x="239.5" y="173.8955">no</text><rect fill="#F1F1F1" height="35.0938" rx="12.5" ry="12.5" style="stroke:#181818;stroke-width:0.5;" width="105" x="250.5" y="795.5527"/><text fill="#000000" font-family="sans-serif" font-size="12" lengthAdjust="spacing" textLength="85" x="260.5" y="818.0098">Inject morphine</text><polygon fill="#F1F1F1" points="259,729.127,347,729.127,359,749.8809,347,770.6348,259,770.6348,247,749.8809,259,729.127" style="stroke:#181818;stroke-width:0.5;"/><text fill="#000000" font-family="sans-serif" font-size="11" lengthAdjust="spacing" textLength="18" x="307" y="782.0537">yes</text><text fill="#000000" font-family="sans-serif" font-size="11" lengthAdjust="spacing" textLength="63" x="259" y="740.5459">Is in pain and</text><text fill="#000000" font-family="sans-serif" font-size="11" lengthAdjust="spacing" textLength="64" x="259" y="754.3818">last morphine</text><text fill="#000000" font-family="sans-serif" font-size="11" lengthAdjust="spacing" textLength="88" x="259" y="768.2178">injection &gt; 15 min?</text><text fill="#000000" font-family="sans-serif" font-size="11" lengthAdjust="spacing" textLength="12" x="359" y="747.4639">no</text><polygon fill="#F1F1F1" points="303,850.6465,315,862.6465,303,874.6465,291,862.6465,303,850.6465" style="stroke:#181818;stroke-width:0.5;"/><rect fill="#F1F1F1" height="50.1875" rx="12.5" ry="12.5" style="stroke:#181818;stroke-width:0.5;" width="118" x="244" y="894.6465"/><text fill="#000000" font-family="sans-serif" font-size="12" lengthAdjust="spacing" textLength="98" x="254" y="917.1035">Heal wounds with</text><text fill="#000000" font-family="sans-serif" font-size="12" lengthAdjust="spacing" textLength="59" x="254" y="932.1973">medical kit</text><ellipse cx="303" cy="974.834" fill="none" rx="10" ry="10" style="stroke:#222222;stroke-width:1.5;"/><line style="stroke:#222222;stroke-width:2.5;" x1="296.8128" x2="309.1872" y1="968.6468" y2="981.0212"/><line style="stroke:#222222;stroke-width:2.5;" x1="309.1872" x2="296.8128" y1="968.6468" y2="981.0212"/><line style="stroke:#181818;stroke-width:1.0;" x1="303" x2="303" y1="61.6094" y2="81.6094"/><polygon fill="#181818" points="299,71.6094,303,81.6094,307,71.6094,303,75.6094" style="stroke:#181818;stroke-width:1.0;"/><line style="stroke:#181818;stroke-width:1.0;" x1="268.5" x2="268.5" y1="373.2676" y2="398.1855"/><polygon fill="#181818" points="264.5,388.1855,268.5,398.1855,272.5,388.1855,268.5,392.1855" style="stroke:#181818;stroke-width:1.0;"/><line style="stroke:#181818;stroke-width:1.0;" x1="327" x2="339" y1="359.4316" y2="359.4316"/><polygon fill="#181818" points="335,404.8145,339,414.8145,343,404.8145,339,408.8145" style="stroke:#181818;stroke-width:1.0;"/><line style="stroke:#181818;stroke-width:1.0;" x1="339" x2="339" y1="359.4316" y2="470.1973"/><line style="stroke:#181818;stroke-width:1.0;" x1="339" x2="280.5" y1="470.1973" y2="470.1973"/><polygon fill="#181818" points="290.5,466.1973,280.5,470.1973,290.5,474.1973,286.5,470.1973" style="stroke:#181818;stroke-width:1.0;"/><line style="stroke:#181818;stroke-width:1.0;" x1="268.5" x2="268.5" y1="433.2793" y2="458.1973"/><polygon fill="#181818" points="264.5,448.1973,268.5,458.1973,272.5,448.1973,268.5,452.1973" style="stroke:#181818;stroke-width:1.0;"/><line style="stroke:#181818;stroke-width:1.0;" x1="436" x2="436" y1="387.1035" y2="412.0215"/><polygon fill="#181818" points="432,402.0215,436,412.0215,440,402.0215,436,406.0215" style="stroke:#181818;stroke-width:1.0;"/><line style="stroke:#181818;stroke-width:1.0;" x1="494.5" x2="506.5" y1="359.4316" y2="359.4316"/><polygon fill="#181818" points="502.5,411.7324,506.5,421.7324,510.5,411.7324,506.5,415.7324" style="stroke:#181818;stroke-width:1.0;"/><line style="stroke:#181818;stroke-width:1.0;" x1="506.5" x2="506.5" y1="359.4316" y2="484.0332"/><line style="stroke:#181818;stroke-width:1.0;" x1="506.5" x2="448" y1="484.0332" y2="484.0332"/><polygon fill="#181818" points="458,480.0332,448,484.0332,458,488.0332,454,484.0332" style="stroke:#181818;stroke-width:1.0;"/><line style="stroke:#181818;stroke-width:1.0;" x1="436" x2="436" y1="447.1152" y2="472.0332"/><polygon fill="#181818" points="432,462.0332,436,472.0332,440,462.0332,436,466.0332" style="stroke:#181818;stroke-width:1.0;"/><line style="stroke:#181818;stroke-width:1.0;" x1="135.5" x2="135.5" y1="311.7598" y2="396.3496"/><polygon fill="#181818" points="131.5,386.3496,135.5,396.3496,139.5,386.3496,135.5,390.3496" style="stroke:#181818;stroke-width:1.0;"/><line style="stroke:#181818;stroke-width:1.0;" x1="268.5" x2="268.5" y1="311.7598" y2="345.5957"/><polygon fill="#181818" points="264.5,335.5957,268.5,345.5957,272.5,335.5957,268.5,339.5957" style="stroke:#181818;stroke-width:1.0;"/><line style="stroke:#181818;stroke-width:1.0;" x1="436" x2="436" y1="311.7598" y2="331.7598"/><polygon fill="#181818" points="432,321.7598,436,331.7598,440,321.7598,436,325.7598" style="stroke:#181818;stroke-width:1.0;"/><line style="stroke:#181818;stroke-width:1.0;" x1="135.5" x2="135.5" y1="431.4434" y2="516.0332"/><polygon fill="#181818" points="131.5,506.0332,135.5,516.0332,139.5,506.0332,135.5,510.0332" style="stroke:#181818;stroke-width:1.0;"/><line style="stroke:#181818;stroke-width:1.0;" x1="268.5" x2="268.5" y1="482.1973" y2="516.0332"/><polygon fill="#181818" points="264.5,506.0332,268.5,516.0332,272.5,506.0332,268.5,510.0332" style="stroke:#181818;stroke-width:1.0;"/><line style="stroke:#181818;stroke-width:1.0;" x1="436" x2="436" y1="496.0332" y2="516.0332"/><polygon fill="#181818" points="432,506.0332,436,516.0332,440,506.0332,436,510.0332" style="stroke:#181818;stroke-width:1.0;"/><line style="stroke:#181818;stroke-width:1.0;" x1="303" x2="303" y1="245.2314" y2="305.7598"/><polygon fill="#181818" points="299,295.7598,303,305.7598,307,295.7598,303,299.7598" style="stroke:#181818;stroke-width:1.0;"/><line style="stroke:#181818;stroke-width:1.0;" x1="303" x2="303" y1="522.0332" y2="544.0332"/><line style="stroke:#181818;stroke-width:1.0;" x1="303" x2="544.5" y1="544.0332" y2="544.0332"/><polygon fill="#181818" points="540.5,396.1738,544.5,386.1738,548.5,396.1738,544.5,392.1738" style="stroke:#181818;stroke-width:1.0;"/><line style="stroke:#181818;stroke-width:1.0;" x1="544.5" x2="544.5" y1="233.2314" y2="544.0332"/><line style="stroke:#181818;stroke-width:1.0;" x1="544.5" x2="357.5" y1="233.2314" y2="233.2314"/><polygon fill="#181818" points="367.5,229.2314,357.5,233.2314,367.5,237.2314,363.5,233.2314" style="stroke:#181818;stroke-width:1.0;"/><line style="stroke:#181818;stroke-width:1.0;" x1="248.5" x2="55" y1="233.2314" y2="233.2314"/><polygon fill="#181818" points="51,382.1738,55,392.1738,59,382.1738,55,386.1738" style="stroke:#181818;stroke-width:1.0;"/><line style="stroke:#181818;stroke-width:1.0;" x1="55" x2="55" y1="233.2314" y2="556.0332"/><line style="stroke:#181818;stroke-width:1.0;" x1="55" x2="303" y1="556.0332" y2="556.0332"/><line style="stroke:#181818;stroke-width:1.0;" x1="303" x2="303" y1="556.0332" y2="576.0332"/><polygon fill="#181818" points="299,566.0332,303,576.0332,307,566.0332,303,570.0332" style="stroke:#181818;stroke-width:1.0;"/><line style="stroke:#181818;stroke-width:1.0;" x1="251.5" x2="215" y1="588.0332" y2="588.0332"/><line style="stroke:#181818;stroke-width:1.0;" x1="215" x2="215" y1="588.0332" y2="610.0332"/><polygon fill="#181818" points="211,600.0332,215,610.0332,219,600.0332,215,604.0332" style="stroke:#181818;stroke-width:1.0;"/><line style="stroke:#181818;stroke-width:1.0;" x1="354.5" x2="391" y1="588.0332" y2="588.0332"/><line style="stroke:#181818;stroke-width:1.0;" x1="391" x2="391" y1="588.0332" y2="610.0332"/><polygon fill="#181818" points="387,600.0332,391,610.0332,395,600.0332,391,604.0332" style="stroke:#181818;stroke-width:1.0;"/><line style="stroke:#181818;stroke-width:1.0;" x1="215" x2="215" y1="645.127" y2="663.127"/><line style="stroke:#181818;stroke-width:1.0;" x1="215" x2="291" y1="663.127" y2="663.127"/><polygon fill="#181818" points="281,659.127,291,663.127,281,667.127,285,663.127" style="stroke:#181818;stroke-width:1.0;"/><line style="stroke:#181818;stroke-width:1.0;" x1="391" x2="391" y1="645.127" y2="663.127"/><line style="stroke:#181818;stroke-width:1.0;" x1="391" x2="315" y1="663.127" y2="663.127"/><polygon fill="#181818" points="325,659.127,315,663.127,325,667.127,321,663.127" style="stroke:#181818;stroke-width:1.0;"/><line style="stroke:#181818;stroke-width:1.0;" x1="303" x2="303" y1="188.3125" y2="221.2314"/><polygon fill="#181818" points="299,211.2314,303,221.2314,307,211.2314,303,215.2314" style="stroke:#181818;stroke-width:1.0;"/><line style="stroke:#181818;stroke-width:1.0;" x1="303" x2="303" y1="675.127" y2="685.127"/><line style="stroke:#181818;stroke-width:1.0;" x1="303" x2="556.5" y1="685.127" y2="685.127"/><polygon fill="#181818" points="552.5,444.3027,556.5,434.3027,560.5,444.3027,556.5,440.3027" style="stroke:#181818;stroke-width:1.0;"/><line style="stroke:#181818;stroke-width:1.0;" x1="556.5" x2="556.5" y1="176.3125" y2="685.127"/><line style="stroke:#181818;stroke-width:1.0;" x1="556.5" x2="354.5" y1="176.3125" y2="176.3125"/><polygon fill="#181818" points="364.5,172.3125,354.5,176.3125,364.5,180.3125,360.5,176.3125" style="stroke:#181818;stroke-width:1.0;"/><line style="stroke:#181818;stroke-width:1.0;" x1="251.5" x2="37" y1="176.3125" y2="176.3125"/><polygon fill="#181818" points="33,430.3027,37,440.3027,41,430.3027,37,434.3027" style="stroke:#181818;stroke-width:1.0;"/><line style="stroke:#181818;stroke-width:1.0;" x1="37" x2="37" y1="176.3125" y2="697.127"/><line style="stroke:#181818;stroke-width:1.0;" x1="37" x2="303" y1="697.127" y2="697.127"/><line style="stroke:#181818;stroke-width:1.0;" x1="303" x2="303" y1="697.127" y2="729.127"/><polygon fill="#181818" points="299,719.127,303,729.127,307,719.127,303,723.127" style="stroke:#181818;stroke-width:1.0;"/><line style="stroke:#181818;stroke-width:1.0;" x1="303" x2="303" y1="116.7031" y2="164.3125"/><polygon fill="#181818" points="299,154.3125,303,164.3125,307,154.3125,303,158.3125" style="stroke:#181818;stroke-width:1.0;"/><line style="stroke:#181818;stroke-width:1.0;" x1="303" x2="303" y1="770.6348" y2="795.5527"/><polygon fill="#181818" points="299,785.5527,303,795.5527,307,785.5527,303,789.5527" style="stroke:#181818;stroke-width:1.0;"/><line style="stroke:#181818;stroke-width:1.0;" x1="359" x2="371" y1="749.8809" y2="749.8809"/><polygon fill="#181818" points="367,798.7227,371,808.7227,375,798.7227,371,802.7227" style="stroke:#181818;stroke-width:1.0;"/><line style="stroke:#181818;stroke-width:1.0;" x1="371" x2="371" y1="749.8809" y2="862.6465"/><line style="stroke:#181818;stroke-width:1.0;" x1="371" x2="315" y1="862.6465" y2="862.6465"/><polygon fill="#181818" points="325,858.6465,315,862.6465,325,866.6465,321,862.6465" style="stroke:#181818;stroke-width:1.0;"/><line style="stroke:#181818;stroke-width:1.0;" x1="303" x2="303" y1="830.6465" y2="850.6465"/><polygon fill="#181818" points="299,840.6465,303,850.6465,307,840.6465,303,844.6465" style="stroke:#181818;stroke-width:1.0;"/><line style="stroke:#181818;stroke-width:1.0;" x1="303" x2="303" y1="874.6465" y2="894.6465"/><polygon fill="#181818" points="299,884.6465,303,894.6465,307,884.6465,303,888.6465" style="stroke:#181818;stroke-width:1.0;"/><line style="stroke:#181818;stroke-width:1.0;" x1="303" x2="303" y1="944.834" y2="964.834"/><polygon fill="#181818" points="299,954.834,303,964.834,307,954.834,303,958.834" style="stroke:#181818;stroke-width:1.0;"/><!--SRC=[jLJ1Rjim3BtxAuZiaXntsAK1MXGTi0ROi69T3mDoOIKcPYjHXYGd7OhyUsaxNkea1dROT10Cwv5wxv5KXJ5pvY0mkROR54CMlf5bWmv-HiBiIJ9CwSMushAiuVldsGHU2z2LiWQtNnVtELJmw8WQJ9gtFwj3wWSnGPBXKAS9VFZAwpB_8kV2Tf-fMTkI7S5qaQ0-eAzcm0cclodD_W3VWmKCHije06EabCVmHtnk1a4zfNjqNazVJoARjGhn-Un1g_-EeW8ytDpzc8-60wwHPJG9hs1wYmamWoDC6Op3b62nM4f9FiHOuffca4kI4OK3IbzuGv3GiT1y54akgOqIndEHM5xz0qa-Z2W25BiKrmYcIibMPTHzAInFPDfoNS97y2nNVwzzqSQ-p_T_BD2JyusnAuvW-uOzlgOtI4T9fmSsdD6bNkSvJXVNzgbMgxQSI_3je3OU3ULraixQrBK5UcrqhdqpFOz1C1_vCrHyIdzN53rxdLSMdItT3eNKsbRbQHK_ZPUnBraVsV4PrgPZrJqujwGFr3RKObFhnLBy_jLwvZpluSNk3G00]--></g></svg>