<?xml version="1.0" encoding="us-ascii" standalone="no"?><svg xmlns="http://www.w3.org/2000/svg" xmlns:xlink="http://www.w3.org/1999/xlink" contentStyleType="text/css" height="2317px" preserveAspectRatio="none" style="width:927px;height:2317px;background:#FFFFFF;" version="1.1" viewBox="0 0 927 2317" width="927px" zoomAndPan="magnify"><defs/><g><polygon fill="none" points="20,10.2734,420,10.2734,427,34.8984,905,34.8984,905,2305.0234,20,2305.0234,20,10.2734" style="stroke:#000000;stroke-width:1.5;"/><line style="stroke:#000000;stroke-width:1.5;" x1="20" x2="427" y1="34.8984" y2="34.8984"/><text fill="#000000" font-family="sans-serif" font-size="16" font-weight="bold" lengthAdjust="spacing" textLength="394" x="24" y="27.125">Advanced Medical Treatment (excluding OD)</text><ellipse cx="465.5" cy="58.8984" fill="#222222" rx="10" ry="10" style="stroke:#222222;stroke-width:1.0;"/><rect fill="none" height="90.2656" style="stroke:#000000;stroke-width:1.5;" width="165" x="383" y="103.8984"/><path d="M538,103.8984 L538,113.1953 L528,123.1953 L383,123.1953 " fill="none" style="stroke:#000000;stroke-width:1.5;"/><text fill="#000000" font-family="sans-serif" font-size="14" font-weight="bold" lengthAdjust="spacing" textLength="13" x="386" y="117.8936">M</text><text fill="#000000" font-family="sans-serif" font-size="14" lengthAdjust="spacing" textLength="132" x="399" y="117.8936">assive hemorrhage</text><rect fill="#F1F1F1" height="33.9688" rx="12.5" ry="12.5" style="stroke:#181818;stroke-width:0.5;" width="114" x="408.5" y="140.1953"/><text fill="#000000" font-family="sans-serif" font-size="12" lengthAdjust="spacing" textLength="94" x="418.5" y="161.334">Stop bleedings</text><polygon fill="#FFFFE0" points="54,289.9688,162,289.9688,169,313.4297,874,313.4297,874,1942.8984,54,1942.8984,54,289.9688" style="stroke:#000000;stroke-width:1.5;"/><line style="stroke:#000000;stroke-width:1.5;" x1="54" x2="169" y1="313.4297" y2="313.4297"/><text fill="#000000" font-family="sans-serif" font-size="15" font-weight="bold" lengthAdjust="spacing" textLength="102" x="58" y="305.8921">Unconscious</text><rect fill="none" height="283.9766" style="stroke:#000000;stroke-width:1.5;" width="221" x="360" y="327.4297"/><path d="M415,327.4297 L415,336.7266 L405,346.7266 L360,346.7266 " fill="none" style="stroke:#000000;stroke-width:1.5;"/><text fill="#000000" font-family="sans-serif" font-size="14" font-weight="bold" lengthAdjust="spacing" textLength="11" x="363" y="341.4248">A</text><text fill="#000000" font-family="sans-serif" font-size="14" lengthAdjust="spacing" textLength="34" x="374" y="341.4248">irway</text><rect fill="#F1F1F1" height="47.9375" rx="12.5" ry="12.5" style="stroke:#181818;stroke-width:0.5;" width="167" x="382" y="412.1289"/><text fill="#000000" font-family="sans-serif" font-size="12" lengthAdjust="spacing" textLength="147" x="392" y="433.2676">Remove occlusions and</text><text fill="#000000" font-family="sans-serif" font-size="12" lengthAdjust="spacing" textLength="79" x="392" y="447.2363">obstructions</text><polygon fill="#F1F1F1" points="420.5,363.7266,510.5,363.7266,522.5,375.7266,510.5,387.7266,420.5,387.7266,408.5,375.7266,420.5,363.7266" style="stroke:#181818;stroke-width:0.5;"/><text fill="#000000" font-family="sans-serif" font-size="11" lengthAdjust="spacing" textLength="20" x="469.5" y="397.937">yes</text><text fill="#000000" font-family="sans-serif" font-size="11" lengthAdjust="spacing" textLength="90" x="420.5" y="379.5347">Airway blocked?</text><text fill="#000000" font-family="sans-serif" font-size="11" lengthAdjust="spacing" textLength="14" x="522.5" y="373.1323">no</text><polygon fill="#F1F1F1" points="465.5,484.4688,477.5,496.4688,465.5,508.4688,453.5,496.4688,465.5,484.4688" style="stroke:#181818;stroke-width:0.5;"/><rect fill="#F1F1F1" height="47.9375" rx="12.5" ry="12.5" style="stroke:#181818;stroke-width:0.5;" width="191" x="370" y="543.4688"/><text fill="#000000" font-family="sans-serif" font-size="12" lengthAdjust="spacing" textLength="116" x="380" y="564.6074">Secure airway with</text><text fill="#000000" font-family="sans-serif" font-size="12" lengthAdjust="spacing" textLength="171" x="380" y="578.5762">recovery position or King LT</text><rect fill="none" height="352.8438" style="stroke:#000000;stroke-width:1.5;" width="242" x="356.5" y="646.4063"/><path d="M444.5,646.4063 L444.5,655.7031 L434.5,665.7031 L356.5,665.7031 " fill="none" style="stroke:#000000;stroke-width:1.5;"/><text fill="#000000" font-family="sans-serif" font-size="14" font-weight="bold" lengthAdjust="spacing" textLength="10" x="359.5" y="660.4014">R</text><text fill="#000000" font-family="sans-serif" font-size="14" lengthAdjust="spacing" textLength="68" x="369.5" y="660.4014">espiration</text><rect fill="#F1F1F1" height="33.9688" rx="12.5" ry="12.5" style="stroke:#181818;stroke-width:0.5;" width="113" x="409" y="731.1055"/><text fill="#000000" font-family="sans-serif" font-size="12" lengthAdjust="spacing" textLength="93" x="419" y="752.2441">Use chest seal</text><rect fill="#F1F1F1" height="33.9688" rx="12.5" ry="12.5" style="stroke:#181818;stroke-width:0.5;" width="93" x="419" y="848.4766"/><text fill="#000000" font-family="sans-serif" font-size="12" lengthAdjust="spacing" textLength="73" x="429" y="869.6152">Use NCD kit</text><polygon fill="#F1F1F1" points="388.5,800.0742,542.5,800.0742,554.5,812.0742,542.5,824.0742,388.5,824.0742,376.5,812.0742,388.5,800.0742" style="stroke:#181818;stroke-width:0.5;"/><text fill="#000000" font-family="sans-serif" font-size="11" lengthAdjust="spacing" textLength="20" x="469.5" y="834.2847">yes</text><text fill="#000000" font-family="sans-serif" font-size="11" lengthAdjust="spacing" textLength="154" x="388.5" y="815.8823">Has tension pneumothorax</text><text fill="#000000" font-family="sans-serif" font-size="11" lengthAdjust="spacing" textLength="14" x="554.5" y="809.48">no</text><polygon fill="#F1F1F1" points="465.5,906.8477,477.5,918.8477,465.5,930.8477,453.5,918.8477,465.5,906.8477" style="stroke:#181818;stroke-width:0.5;"/><polygon fill="#F1F1F1" points="411.5,682.7031,519.5,682.7031,531.5,694.7031,519.5,706.7031,411.5,706.7031,399.5,694.7031,411.5,682.7031" style="stroke:#181818;stroke-width:0.5;"/><text fill="#000000" font-family="sans-serif" font-size="11" lengthAdjust="spacing" textLength="20" x="469.5" y="716.9136">yes</text><text fill="#000000" font-family="sans-serif" font-size="11" lengthAdjust="spacing" textLength="108" x="411.5" y="698.5112">Has pneumothorax</text><text fill="#000000" font-family="sans-serif" font-size="11" lengthAdjust="spacing" textLength="14" x="531.5" y="692.1089">no</text><polygon fill="#F1F1F1" points="465.5,955.25,477.5,967.25,465.5,979.25,453.5,967.25,465.5,955.25" style="stroke:#181818;stroke-width:0.5;"/><polygon fill="#FFA07A" points="88,1095.0547,210,1095.0547,217,1118.5156,843,1118.5156,843,1418.8047,88,1418.8047,88,1095.0547" style="stroke:#000000;stroke-width:1.5;"/><line style="stroke:#000000;stroke-width:1.5;" x1="88" x2="217" y1="1118.5156" y2="1118.5156"/><text fill="#000000" font-family="sans-serif" font-size="15" font-weight="bold" lengthAdjust="spacing" textLength="116" x="92" y="1110.978">Cardiac arrest</text><rect fill="none" height="266.2891" style="stroke:#000000;stroke-width:1.5;" width="735" x="98" y="1132.5156"/><path d="M181,1132.5156 L181,1141.8125 L171,1151.8125 L98,1151.8125 " fill="none" style="stroke:#000000;stroke-width:1.5;"/><text fill="#000000" font-family="sans-serif" font-size="14" font-weight="bold" lengthAdjust="spacing" textLength="11" x="101" y="1146.5107">C</text><text fill="#000000" font-family="sans-serif" font-size="14" lengthAdjust="spacing" textLength="62" x="112" y="1146.5107">irculation</text><rect fill="#555555" height="6" rx="2.5" ry="2.5" style="stroke:#555555;stroke-width:1.0;" width="715" x="108" y="1168.8125"/><rect fill="#F1F1F1" height="47.9375" rx="12.5" ry="12.5" style="stroke:#181818;stroke-width:0.5;" width="102" x="122" y="1215.3555"/><text fill="#000000" font-family="sans-serif" font-size="12" lengthAdjust="spacing" textLength="82" x="132" y="1236.4941">Put in supine</text><text fill="#000000" font-family="sans-serif" font-size="12" lengthAdjust="spacing" textLength="50" x="132" y="1250.4629">position</text><rect fill="#F1F1F1" height="33.9688" rx="12.5" ry="12.5" style="stroke:#181818;stroke-width:0.5;" width="97" x="124.5" y="1298.293"/><text fill="#000000" font-family="sans-serif" font-size="12" lengthAdjust="spacing" textLength="77" x="134.5" y="1319.4316">Perform CPR</text><rect fill="#F1F1F1" height="47.9375" rx="12.5" ry="12.5" style="stroke:#181818;stroke-width:0.5;" width="155" x="262" y="1249.8398"/><text fill="#000000" font-family="sans-serif" font-size="12" lengthAdjust="spacing" textLength="135" x="272" y="1270.9785">Provide supplemental</text><text fill="#000000" font-family="sans-serif" font-size="12" lengthAdjust="spacing" textLength="44" x="272" y="1284.9473">oxygen</text><polygon fill="#F1F1F1" points="303.5,1201.4375,375.5,1201.4375,387.5,1213.4375,375.5,1225.4375,303.5,1225.4375,291.5,1213.4375,303.5,1201.4375" style="stroke:#181818;stroke-width:0.5;"/><text fill="#000000" font-family="sans-serif" font-size="11" lengthAdjust="spacing" textLength="20" x="343.5" y="1235.6479">yes</text><text fill="#000000" font-family="sans-serif" font-size="11" lengthAdjust="spacing" textLength="72" x="303.5" y="1217.2456">SpO2 &lt; 75%</text><text fill="#000000" font-family="sans-serif" font-size="11" lengthAdjust="spacing" textLength="14" x="387.5" y="1210.8433">no</text><polygon fill="#F1F1F1" points="339.5,1322.1797,351.5,1334.1797,339.5,1346.1797,327.5,1334.1797,339.5,1322.1797" style="stroke:#181818;stroke-width:0.5;"/><rect fill="#F1F1F1" height="33.9688" rx="12.5" ry="12.5" style="stroke:#181818;stroke-width:0.5;" width="87" x="492" y="1257.6289"/><text fill="#000000" font-family="sans-serif" font-size="12" lengthAdjust="spacing" textLength="67" x="502" y="1278.7676">Give saline</text><polygon fill="#F1F1F1" points="479,1207.6172,592,1207.6172,604,1220.4219,592,1233.2266,479,1233.2266,467,1220.4219,479,1207.6172" style="stroke:#181818;stroke-width:0.5;"/><text fill="#000000" font-family="sans-serif" font-size="11" lengthAdjust="spacing" textLength="20" x="539.5" y="1243.437">yes</text><text fill="#000000" font-family="sans-serif" font-size="11" lengthAdjust="spacing" textLength="113" x="479" y="1217.8276">Has at least class II</text><text fill="#000000" font-family="sans-serif" font-size="11" lengthAdjust="spacing" textLength="70" x="479" y="1230.6323">hemorrhage</text><text fill="#000000" font-family="sans-serif" font-size="11" lengthAdjust="spacing" textLength="14" x="604" y="1217.8276">no</text><polygon fill="#F1F1F1" points="535.5,1316,547.5,1328,535.5,1340,523.5,1328,535.5,1316" style="stroke:#181818;stroke-width:0.5;"/><rect fill="#F1F1F1" height="33.9688" rx="12.5" ry="12.5" style="stroke:#181818;stroke-width:0.5;" width="133" x="654" y="1270.4336"/><text fill="#000000" font-family="sans-serif" font-size="12" lengthAdjust="spacing" textLength="113" x="664" y="1291.5723">Inject epinephrine</text><polygon fill="#F1F1F1" points="663.5,1194.8125,777.5,1194.8125,789.5,1220.4219,777.5,1246.0313,663.5,1246.0313,651.5,1220.4219,663.5,1194.8125" style="stroke:#181818;stroke-width:0.5;"/><text fill="#000000" font-family="sans-serif" font-size="11" lengthAdjust="spacing" textLength="20" x="724.5" y="1256.2417">yes</text><text fill="#000000" font-family="sans-serif" font-size="11" lengthAdjust="spacing" textLength="114" x="663.5" y="1205.0229">Has at most class II</text><text fill="#000000" font-family="sans-serif" font-size="11" lengthAdjust="spacing" textLength="95" x="663.5" y="1217.8276">hemorrhage and</text><text fill="#000000" font-family="sans-serif" font-size="11" lengthAdjust="spacing" textLength="92" x="663.5" y="1230.6323">last epinephrine</text><text fill="#000000" font-family="sans-serif" font-size="11" lengthAdjust="spacing" textLength="102" x="663.5" y="1243.437">injection &gt; 1 min?</text><text fill="#000000" font-family="sans-serif" font-size="11" lengthAdjust="spacing" textLength="14" x="789.5" y="1217.8276">no</text><polygon fill="#F1F1F1" points="720.5,1328.8047,732.5,1340.8047,720.5,1352.8047,708.5,1340.8047,720.5,1328.8047" style="stroke:#181818;stroke-width:0.5;"/><rect fill="#555555" height="6" rx="2.5" ry="2.5" style="stroke:#555555;stroke-width:1.0;" width="715" x="108" y="1372.8047"/><polygon fill="#F1F1F1" points="415.5,1034.25,515.5,1034.25,527.5,1046.25,515.5,1058.25,415.5,1058.25,403.5,1046.25,415.5,1034.25" style="stroke:#181818;stroke-width:0.5;"/><text fill="#000000" font-family="sans-serif" font-size="11" lengthAdjust="spacing" textLength="20" x="469.5" y="1068.4604">yes</text><text fill="#000000" font-family="sans-serif" font-size="11" lengthAdjust="spacing" textLength="100" x="415.5" y="1050.0581">In cardiac arrest?</text><text fill="#000000" font-family="sans-serif" font-size="11" lengthAdjust="spacing" textLength="14" x="389.5" y="1043.6558">no</text><polygon fill="#F1F1F1" points="418,1477.8047,513,1477.8047,525,1489.8047,513,1501.8047,418,1501.8047,406,1489.8047,418,1477.8047" style="stroke:#181818;stroke-width:0.5;"/><text fill="#000000" font-family="sans-serif" font-size="11" lengthAdjust="spacing" textLength="95" x="418" y="1493.6128">Has stable vitals</text><text fill="#000000" font-family="sans-serif" font-size="11" lengthAdjust="spacing" textLength="14" x="392" y="1487.2104">no</text><text fill="#000000" font-family="sans-serif" font-size="11" lengthAdjust="spacing" textLength="20" x="525" y="1487.2104">yes</text><rect fill="#F1F1F1" height="47.9375" rx="12.5" ry="12.5" style="stroke:#181818;stroke-width:0.5;" width="155" x="281.5" y="1560.207"/><text fill="#000000" font-family="sans-serif" font-size="12" lengthAdjust="spacing" textLength="135" x="291.5" y="1581.3457">Provide supplemental</text><text fill="#000000" font-family="sans-serif" font-size="12" lengthAdjust="spacing" textLength="44" x="291.5" y="1595.3145">oxygen</text><polygon fill="#F1F1F1" points="323,1511.8047,395,1511.8047,407,1523.8047,395,1535.8047,323,1535.8047,311,1523.8047,323,1511.8047" style="stroke:#181818;stroke-width:0.5;"/><text fill="#000000" font-family="sans-serif" font-size="11" lengthAdjust="spacing" textLength="20" x="363" y="1546.0151">yes</text><text fill="#000000" font-family="sans-serif" font-size="11" lengthAdjust="spacing" textLength="72" x="323" y="1527.6128">SpO2 &lt; 85%</text><text fill="#000000" font-family="sans-serif" font-size="11" lengthAdjust="spacing" textLength="14" x="407" y="1521.2104">no</text><polygon fill="#F1F1F1" points="359,1632.5469,371,1644.5469,359,1656.5469,347,1644.5469,359,1632.5469" style="stroke:#181818;stroke-width:0.5;"/><rect fill="#F1F1F1" height="33.9688" rx="12.5" ry="12.5" style="stroke:#181818;stroke-width:0.5;" width="87" x="315.5" y="1741.5586"/><text fill="#000000" font-family="sans-serif" font-size="12" lengthAdjust="spacing" textLength="67" x="325.5" y="1762.6973">Give saline</text><polygon fill="#F1F1F1" points="302.5,1691.5469,415.5,1691.5469,427.5,1704.3516,415.5,1717.1563,302.5,1717.1563,290.5,1704.3516,302.5,1691.5469" style="stroke:#181818;stroke-width:0.5;"/><text fill="#000000" font-family="sans-serif" font-size="11" lengthAdjust="spacing" textLength="20" x="363" y="1727.3667">yes</text><text fill="#000000" font-family="sans-serif" font-size="11" lengthAdjust="spacing" textLength="113" x="302.5" y="1701.7573">Has at least class II</text><text fill="#000000" font-family="sans-serif" font-size="11" lengthAdjust="spacing" textLength="76" x="302.5" y="1714.562">hemorrhage?</text><text fill="#000000" font-family="sans-serif" font-size="11" lengthAdjust="spacing" textLength="14" x="427.5" y="1701.7573">no</text><polygon fill="#F1F1F1" points="359,1799.9297,371,1811.9297,359,1823.9297,347,1811.9297,359,1799.9297" style="stroke:#181818;stroke-width:0.5;"/><rect fill="#F1F1F1" height="33.9688" rx="12.5" ry="12.5" style="stroke:#181818;stroke-width:0.5;" width="161" x="278.5" y="1858.9297"/><text fill="#000000" font-family="sans-serif" font-size="12" lengthAdjust="spacing" textLength="141" x="288.5" y="1880.0684">Adjust with medication</text><rect fill="#F1F1F1" height="33.9688" rx="12.5" ry="12.5" style="stroke:#181818;stroke-width:0.5;" width="187" x="478.5" y="1511.8047"/><text fill="#000000" font-family="sans-serif" font-size="12" lengthAdjust="spacing" textLength="167" x="488.5" y="1532.9434">Give ammonium carbonate</text><polygon fill="#F1F1F1" points="465.5,1898.8984,477.5,1910.8984,465.5,1922.8984,453.5,1910.8984,465.5,1898.8984" style="stroke:#181818;stroke-width:0.5;"/><polygon fill="#F1F1F1" points="420,229.1641,511,229.1641,523,241.1641,511,253.1641,420,253.1641,408,241.1641,420,229.1641" style="stroke:#181818;stroke-width:0.5;"/><text fill="#000000" font-family="sans-serif" font-size="11" lengthAdjust="spacing" textLength="20" x="469.5" y="263.3745">yes</text><text fill="#000000" font-family="sans-serif" font-size="11" lengthAdjust="spacing" textLength="91" x="420" y="244.9722">Is unconscious?</text><text fill="#000000" font-family="sans-serif" font-size="11" lengthAdjust="spacing" textLength="14" x="394" y="238.5698">no</text><rect fill="#F1F1F1" height="33.9688" rx="12.5" ry="12.5" style="stroke:#181818;stroke-width:0.5;" width="117" x="407" y="2064.7148"/><text fill="#000000" font-family="sans-serif" font-size="12" lengthAdjust="spacing" textLength="97" x="417" y="2085.8535">Inject morphine</text><polygon fill="#F1F1F1" points="411,2001.8984,520,2001.8984,532,2021.1055,520,2040.3125,411,2040.3125,399,2021.1055,411,2001.8984" style="stroke:#181818;stroke-width:0.5;"/><text fill="#000000" font-family="sans-serif" font-size="11" lengthAdjust="spacing" textLength="20" x="469.5" y="2050.5229">yes</text><text fill="#000000" font-family="sans-serif" font-size="11" lengthAdjust="spacing" textLength="77" x="411" y="2012.1089">Is in pain and</text><text fill="#000000" font-family="sans-serif" font-size="11" lengthAdjust="spacing" textLength="79" x="411" y="2024.9136">last morphine</text><text fill="#000000" font-family="sans-serif" font-size="11" lengthAdjust="spacing" textLength="109" x="411" y="2037.7183">injection &gt; 15 min?</text><text fill="#000000" font-family="sans-serif" font-size="11" lengthAdjust="spacing" textLength="14" x="532" y="2018.5112">no</text><polygon fill="#F1F1F1" points="465.5,2123.0859,477.5,2135.0859,465.5,2147.0859,453.5,2135.0859,465.5,2123.0859" style="stroke:#181818;stroke-width:0.5;"/><rect fill="#F1F1F1" height="47.9375" rx="12.5" ry="12.5" style="stroke:#181818;stroke-width:0.5;" width="129" x="401" y="2182.0859"/><text fill="#000000" font-family="sans-serif" font-size="12" lengthAdjust="spacing" textLength="109" x="411" y="2203.2246">Heal wounds with</text><text fill="#000000" font-family="sans-serif" font-size="12" lengthAdjust="spacing" textLength="67" x="411" y="2217.1934">medical kit</text><ellipse cx="465.5" cy="2275.0234" fill="none" rx="10" ry="10" style="stroke:#222222;stroke-width:1.5;"/><line style="stroke:#222222;stroke-width:2.5;" x1="459.3128" x2="471.6872" y1="2268.8363" y2="2281.2106"/><line style="stroke:#222222;stroke-width:2.5;" x1="471.6872" x2="459.3128" y1="2268.8363" y2="2281.2106"/><line style="stroke:#181818;stroke-width:1.0;" x1="465.5" x2="465.5" y1="68.8984" y2="140.1953"/><polygon fill="#181818" points="461.5,130.1953,465.5,140.1953,469.5,130.1953,465.5,134.1953" style="stroke:#181818;stroke-width:1.0;"/><line style="stroke:#181818;stroke-width:1.0;" x1="465.5" x2="465.5" y1="387.7266" y2="412.1289"/><polygon fill="#181818" points="461.5,402.1289,465.5,412.1289,469.5,402.1289,465.5,406.1289" style="stroke:#181818;stroke-width:1.0;"/><line style="stroke:#181818;stroke-width:1.0;" x1="522.5" x2="559" y1="375.7266" y2="375.7266"/><polygon fill="#181818" points="555,426.0977,559,436.0977,563,426.0977,559,430.0977" style="stroke:#181818;stroke-width:1.0;"/><line style="stroke:#181818;stroke-width:1.0;" x1="559" x2="559" y1="375.7266" y2="496.4688"/><line style="stroke:#181818;stroke-width:1.0;" x1="559" x2="477.5" y1="496.4688" y2="496.4688"/><polygon fill="#181818" points="487.5,492.4688,477.5,496.4688,487.5,500.4688,483.5,496.4688" style="stroke:#181818;stroke-width:1.0;"/><line style="stroke:#181818;stroke-width:1.0;" x1="465.5" x2="465.5" y1="460.0664" y2="484.4688"/><polygon fill="#181818" points="461.5,474.4688,465.5,484.4688,469.5,474.4688,465.5,478.4688" style="stroke:#181818;stroke-width:1.0;"/><line style="stroke:#181818;stroke-width:1.0;" x1="465.5" x2="465.5" y1="508.4688" y2="543.4688"/><polygon fill="#181818" points="461.5,533.4688,465.5,543.4688,469.5,533.4688,465.5,537.4688" style="stroke:#181818;stroke-width:1.0;"/><line style="stroke:#181818;stroke-width:1.0;" x1="465.5" x2="465.5" y1="824.0742" y2="848.4766"/><polygon fill="#181818" points="461.5,838.4766,465.5,848.4766,469.5,838.4766,465.5,842.4766" style="stroke:#181818;stroke-width:1.0;"/><line style="stroke:#181818;stroke-width:1.0;" x1="554.5" x2="566.5" y1="812.0742" y2="812.0742"/><polygon fill="#181818" points="562.5,855.4609,566.5,865.4609,570.5,855.4609,566.5,859.4609" style="stroke:#181818;stroke-width:1.0;"/><line style="stroke:#181818;stroke-width:1.0;" x1="566.5" x2="566.5" y1="812.0742" y2="918.8477"/><line style="stroke:#181818;stroke-width:1.0;" x1="566.5" x2="477.5" y1="918.8477" y2="918.8477"/><polygon fill="#181818" points="487.5,914.8477,477.5,918.8477,487.5,922.8477,483.5,918.8477" style="stroke:#181818;stroke-width:1.0;"/><line style="stroke:#181818;stroke-width:1.0;" x1="465.5" x2="465.5" y1="882.4453" y2="906.8477"/><polygon fill="#181818" points="461.5,896.8477,465.5,906.8477,469.5,896.8477,465.5,900.8477" style="stroke:#181818;stroke-width:1.0;"/><line style="stroke:#181818;stroke-width:1.0;" x1="465.5" x2="465.5" y1="765.0742" y2="800.0742"/><polygon fill="#181818" points="461.5,790.0742,465.5,800.0742,469.5,790.0742,465.5,794.0742" style="stroke:#181818;stroke-width:1.0;"/><line style="stroke:#181818;stroke-width:1.0;" x1="465.5" x2="465.5" y1="706.7031" y2="731.1055"/><polygon fill="#181818" points="461.5,721.1055,465.5,731.1055,469.5,721.1055,465.5,725.1055" style="stroke:#181818;stroke-width:1.0;"/><line style="stroke:#181818;stroke-width:1.0;" x1="531.5" x2="576.5" y1="694.7031" y2="694.7031"/><polygon fill="#181818" points="572.5,820.9766,576.5,830.9766,580.5,820.9766,576.5,824.9766" style="stroke:#181818;stroke-width:1.0;"/><line style="stroke:#181818;stroke-width:1.0;" x1="576.5" x2="576.5" y1="694.7031" y2="967.25"/><line style="stroke:#181818;stroke-width:1.0;" x1="576.5" x2="477.5" y1="967.25" y2="967.25"/><polygon fill="#181818" points="487.5,963.25,477.5,967.25,487.5,971.25,483.5,967.25" style="stroke:#181818;stroke-width:1.0;"/><line style="stroke:#181818;stroke-width:1.0;" x1="465.5" x2="465.5" y1="930.8477" y2="955.25"/><polygon fill="#181818" points="461.5,945.25,465.5,955.25,469.5,945.25,465.5,949.25" style="stroke:#181818;stroke-width:1.0;"/><line style="stroke:#181818;stroke-width:1.0;" x1="465.5" x2="465.5" y1="591.4063" y2="682.7031"/><polygon fill="#181818" points="461.5,672.7031,465.5,682.7031,469.5,672.7031,465.5,676.7031" style="stroke:#181818;stroke-width:1.0;"/><line style="stroke:#181818;stroke-width:1.0;" x1="173" x2="173" y1="1263.293" y2="1298.293"/><polygon fill="#181818" points="169,1288.293,173,1298.293,177,1288.293,173,1292.293" style="stroke:#181818;stroke-width:1.0;"/><line style="stroke:#181818;stroke-width:1.0;" x1="339.5" x2="339.5" y1="1225.4375" y2="1249.8398"/><polygon fill="#181818" points="335.5,1239.8398,339.5,1249.8398,343.5,1239.8398,339.5,1243.8398" style="stroke:#181818;stroke-width:1.0;"/><line style="stroke:#181818;stroke-width:1.0;" x1="387.5" x2="427" y1="1213.4375" y2="1213.4375"/><polygon fill="#181818" points="423,1263.8086,427,1273.8086,431,1263.8086,427,1267.8086" style="stroke:#181818;stroke-width:1.0;"/><line style="stroke:#181818;stroke-width:1.0;" x1="427" x2="427" y1="1213.4375" y2="1334.1797"/><line style="stroke:#181818;stroke-width:1.0;" x1="427" x2="351.5" y1="1334.1797" y2="1334.1797"/><polygon fill="#181818" points="361.5,1330.1797,351.5,1334.1797,361.5,1338.1797,357.5,1334.1797" style="stroke:#181818;stroke-width:1.0;"/><line style="stroke:#181818;stroke-width:1.0;" x1="339.5" x2="339.5" y1="1297.7773" y2="1322.1797"/><polygon fill="#181818" points="335.5,1312.1797,339.5,1322.1797,343.5,1312.1797,339.5,1316.1797" style="stroke:#181818;stroke-width:1.0;"/><line style="stroke:#181818;stroke-width:1.0;" x1="535.5" x2="535.5" y1="1233.2266" y2="1257.6289"/><polygon fill="#181818" points="531.5,1247.6289,535.5,1257.6289,539.5,1247.6289,535.5,1251.6289" style="stroke:#181818;stroke-width:1.0;"/><line style="stroke:#181818;stroke-width:1.0;" x1="604" x2="616" y1="1220.4219" y2="1220.4219"/><polygon fill="#181818" points="612,1264.2109,616,1274.2109,620,1264.2109,616,1268.2109" style="stroke:#181818;stroke-width:1.0;"/><line style="stroke:#181818;stroke-width:1.0;" x1="616" x2="616" y1="1220.4219" y2="1328"/><line style="stroke:#181818;stroke-width:1.0;" x1="616" x2="547.5" y1="1328" y2="1328"/><polygon fill="#181818" points="557.5,1324,547.5,1328,557.5,1332,553.5,1328" style="stroke:#181818;stroke-width:1.0;"/><line style="stroke:#181818;stroke-width:1.0;" x1="535.5" x2="535.5" y1="1291.5977" y2="1316"/><polygon fill="#181818" points="531.5,1306,535.5,1316,539.5,1306,535.5,1310" style="stroke:#181818;stroke-width:1.0;"/><line style="stroke:#181818;stroke-width:1.0;" x1="720.5" x2="720.5" y1="1246.0313" y2="1270.4336"/><polygon fill="#181818" points="716.5,1260.4336,720.5,1270.4336,724.5,1260.4336,720.5,1264.4336" style="stroke:#181818;stroke-width:1.0;"/><line style="stroke:#181818;stroke-width:1.0;" x1="789.5" x2="801.5" y1="1220.4219" y2="1220.4219"/><polygon fill="#181818" points="797.5,1270.6133,801.5,1280.6133,805.5,1270.6133,801.5,1274.6133" style="stroke:#181818;stroke-width:1.0;"/><line style="stroke:#181818;stroke-width:1.0;" x1="801.5" x2="801.5" y1="1220.4219" y2="1340.8047"/><line style="stroke:#181818;stroke-width:1.0;" x1="801.5" x2="732.5" y1="1340.8047" y2="1340.8047"/><polygon fill="#181818" points="742.5,1336.8047,732.5,1340.8047,742.5,1344.8047,738.5,1340.8047" style="stroke:#181818;stroke-width:1.0;"/><line style="stroke:#181818;stroke-width:1.0;" x1="720.5" x2="720.5" y1="1304.4023" y2="1328.8047"/><polygon fill="#181818" points="716.5,1318.8047,720.5,1328.8047,724.5,1318.8047,720.5,1322.8047" style="stroke:#181818;stroke-width:1.0;"/><line style="stroke:#181818;stroke-width:1.0;" x1="173" x2="173" y1="1174.8125" y2="1215.3555"/><polygon fill="#181818" points="169,1205.3555,173,1215.3555,177,1205.3555,173,1209.3555" style="stroke:#181818;stroke-width:1.0;"/><line style="stroke:#181818;stroke-width:1.0;" x1="339.5" x2="339.5" y1="1174.8125" y2="1201.4375"/><polygon fill="#181818" points="335.5,1191.4375,339.5,1201.4375,343.5,1191.4375,339.5,1195.4375" style="stroke:#181818;stroke-width:1.0;"/><line style="stroke:#181818;stroke-width:1.0;" x1="535.5" x2="535.5" y1="1174.8125" y2="1207.6172"/><polygon fill="#181818" points="531.5,1197.6172,535.5,1207.6172,539.5,1197.6172,535.5,1201.6172" style="stroke:#181818;stroke-width:1.0;"/><line style="stroke:#181818;stroke-width:1.0;" x1="720.5" x2="720.5" y1="1174.8125" y2="1194.8125"/><polygon fill="#181818" points="716.5,1184.8125,720.5,1194.8125,724.5,1184.8125,720.5,1188.8125" style="stroke:#181818;stroke-width:1.0;"/><line style="stroke:#181818;stroke-width:1.0;" x1="173" x2="173" y1="1332.2617" y2="1372.8047"/><polygon fill="#181818" points="169,1362.8047,173,1372.8047,177,1362.8047,173,1366.8047" style="stroke:#181818;stroke-width:1.0;"/><line style="stroke:#181818;stroke-width:1.0;" x1="339.5" x2="339.5" y1="1346.1797" y2="1372.8047"/><polygon fill="#181818" points="335.5,1362.8047,339.5,1372.8047,343.5,1362.8047,339.5,1366.8047" style="stroke:#181818;stroke-width:1.0;"/><line style="stroke:#181818;stroke-width:1.0;" x1="535.5" x2="535.5" y1="1340" y2="1372.8047"/><polygon fill="#181818" points="531.5,1362.8047,535.5,1372.8047,539.5,1362.8047,535.5,1366.8047" style="stroke:#181818;stroke-width:1.0;"/><line style="stroke:#181818;stroke-width:1.0;" x1="720.5" x2="720.5" y1="1352.8047" y2="1372.8047"/><polygon fill="#181818" points="716.5,1362.8047,720.5,1372.8047,724.5,1362.8047,720.5,1366.8047" style="stroke:#181818;stroke-width:1.0;"/><line style="stroke:#181818;stroke-width:1.0;" x1="465.5" x2="465.5" y1="1058.25" y2="1168.8125"/><polygon fill="#181818" points="461.5,1158.8125,465.5,1168.8125,469.5,1158.8125,465.5,1162.8125" style="stroke:#181818;stroke-width:1.0;"/><line style="stroke:#181818;stroke-width:1.0;" x1="465.5" x2="465.5" y1="1378.8047" y2="1430.8047"/><line style="stroke:#181818;stroke-width:1.0;" x1="465.5" x2="855" y1="1430.8047" y2="1430.8047"/><polygon fill="#181818" points="851,1248.5273,855,1238.5273,859,1248.5273,855,1244.5273" style="stroke:#181818;stroke-width:1.0;"/><line style="stroke:#181818;stroke-width:1.0;" x1="855" x2="855" y1="1046.25" y2="1430.8047"/><line style="stroke:#181818;stroke-width:1.0;" x1="855" x2="527.5" y1="1046.25" y2="1046.25"/><polygon fill="#181818" points="537.5,1042.25,527.5,1046.25,537.5,1050.25,533.5,1046.25" style="stroke:#181818;stroke-width:1.0;"/><line style="stroke:#181818;stroke-width:1.0;" x1="403.5" x2="76" y1="1046.25" y2="1046.25"/><polygon fill="#181818" points="72,1234.5273,76,1244.5273,80,1234.5273,76,1238.5273" style="stroke:#181818;stroke-width:1.0;"/><line style="stroke:#181818;stroke-width:1.0;" x1="76" x2="76" y1="1046.25" y2="1442.8047"/><line style="stroke:#181818;stroke-width:1.0;" x1="76" x2="465.5" y1="1442.8047" y2="1442.8047"/><line style="stroke:#181818;stroke-width:1.0;" x1="465.5" x2="465.5" y1="1442.8047" y2="1477.8047"/><polygon fill="#181818" points="461.5,1467.8047,465.5,1477.8047,469.5,1467.8047,465.5,1471.8047" style="stroke:#181818;stroke-width:1.0;"/><line style="stroke:#181818;stroke-width:1.0;" x1="465.5" x2="465.5" y1="979.25" y2="1034.25"/><polygon fill="#181818" points="461.5,1024.25,465.5,1034.25,469.5,1024.25,465.5,1028.25" style="stroke:#181818;stroke-width:1.0;"/><line style="stroke:#181818;stroke-width:1.0;" x1="359" x2="359" y1="1535.8047" y2="1560.207"/><polygon fill="#181818" points="355,1550.207,359,1560.207,363,1550.207,359,1554.207" style="stroke:#181818;stroke-width:1.0;"/><line style="stroke:#181818;stroke-width:1.0;" x1="407" x2="446.5" y1="1523.8047" y2="1523.8047"/><polygon fill="#181818" points="442.5,1574.1758,446.5,1584.1758,450.5,1574.1758,446.5,1578.1758" style="stroke:#181818;stroke-width:1.0;"/><line style="stroke:#181818;stroke-width:1.0;" x1="446.5" x2="446.5" y1="1523.8047" y2="1644.5469"/><line style="stroke:#181818;stroke-width:1.0;" x1="446.5" x2="371" y1="1644.5469" y2="1644.5469"/><polygon fill="#181818" points="381,1640.5469,371,1644.5469,381,1648.5469,377,1644.5469" style="stroke:#181818;stroke-width:1.0;"/><line style="stroke:#181818;stroke-width:1.0;" x1="359" x2="359" y1="1608.1445" y2="1632.5469"/><polygon fill="#181818" points="355,1622.5469,359,1632.5469,363,1622.5469,359,1626.5469" style="stroke:#181818;stroke-width:1.0;"/><line style="stroke:#181818;stroke-width:1.0;" x1="359" x2="359" y1="1717.1563" y2="1741.5586"/><polygon fill="#181818" points="355,1731.5586,359,1741.5586,363,1731.5586,359,1735.5586" style="stroke:#181818;stroke-width:1.0;"/><line style="stroke:#181818;stroke-width:1.0;" x1="427.5" x2="439.5" y1="1704.3516" y2="1704.3516"/><polygon fill="#181818" points="435.5,1748.1406,439.5,1758.1406,443.5,1748.1406,439.5,1752.1406" style="stroke:#181818;stroke-width:1.0;"/><line style="stroke:#181818;stroke-width:1.0;" x1="439.5" x2="439.5" y1="1704.3516" y2="1811.9297"/><line style="stroke:#181818;stroke-width:1.0;" x1="439.5" x2="371" y1="1811.9297" y2="1811.9297"/><polygon fill="#181818" points="381,1807.9297,371,1811.9297,381,1815.9297,377,1811.9297" style="stroke:#181818;stroke-width:1.0;"/><line style="stroke:#181818;stroke-width:1.0;" x1="359" x2="359" y1="1775.5273" y2="1799.9297"/><polygon fill="#181818" points="355,1789.9297,359,1799.9297,363,1789.9297,359,1793.9297" style="stroke:#181818;stroke-width:1.0;"/><line style="stroke:#181818;stroke-width:1.0;" x1="359" x2="359" y1="1656.5469" y2="1691.5469"/><polygon fill="#181818" points="355,1681.5469,359,1691.5469,363,1681.5469,359,1685.5469" style="stroke:#181818;stroke-width:1.0;"/><line style="stroke:#181818;stroke-width:1.0;" x1="359" x2="359" y1="1823.9297" y2="1858.9297"/><polygon fill="#181818" points="355,1848.9297,359,1858.9297,363,1848.9297,359,1852.9297" style="stroke:#181818;stroke-width:1.0;"/><line style="stroke:#181818;stroke-width:1.0;" x1="406" x2="359" y1="1489.8047" y2="1489.8047"/><line style="stroke:#181818;stroke-width:1.0;" x1="359" x2="359" y1="1489.8047" y2="1511.8047"/><polygon fill="#181818" points="355,1501.8047,359,1511.8047,363,1501.8047,359,1505.8047" style="stroke:#181818;stroke-width:1.0;"/><line style="stroke:#181818;stroke-width:1.0;" x1="525" x2="572" y1="1489.8047" y2="1489.8047"/><line style="stroke:#181818;stroke-width:1.0;" x1="572" x2="572" y1="1489.8047" y2="1511.8047"/><polygon fill="#181818" points="568,1501.8047,572,1511.8047,576,1501.8047,572,1505.8047" style="stroke:#181818;stroke-width:1.0;"/><line style="stroke:#181818;stroke-width:1.0;" x1="359" x2="359" y1="1892.8984" y2="1910.8984"/><line style="stroke:#181818;stroke-width:1.0;" x1="359" x2="453.5" y1="1910.8984" y2="1910.8984"/><polygon fill="#181818" points="443.5,1906.8984,453.5,1910.8984,443.5,1914.8984,447.5,1910.8984" style="stroke:#181818;stroke-width:1.0;"/><line style="stroke:#181818;stroke-width:1.0;" x1="572" x2="572" y1="1545.7734" y2="1910.8984"/><line style="stroke:#181818;stroke-width:1.0;" x1="572" x2="477.5" y1="1910.8984" y2="1910.8984"/><polygon fill="#181818" points="487.5,1906.8984,477.5,1910.8984,487.5,1914.8984,483.5,1910.8984" style="stroke:#181818;stroke-width:1.0;"/><line style="stroke:#181818;stroke-width:1.0;" x1="465.5" x2="465.5" y1="253.1641" y2="363.7266"/><polygon fill="#181818" points="461.5,353.7266,465.5,363.7266,469.5,353.7266,465.5,357.7266" style="stroke:#181818;stroke-width:1.0;"/><line style="stroke:#181818;stroke-width:1.0;" x1="465.5" x2="465.5" y1="1922.8984" y2="1954.8984"/><line style="stroke:#181818;stroke-width:1.0;" x1="465.5" x2="886" y1="1954.8984" y2="1954.8984"/><polygon fill="#181818" points="882,1108.0313,886,1098.0313,890,1108.0313,886,1104.0313" style="stroke:#181818;stroke-width:1.0;"/><line style="stroke:#181818;stroke-width:1.0;" x1="886" x2="886" y1="241.1641" y2="1954.8984"/><line style="stroke:#181818;stroke-width:1.0;" x1="886" x2="523" y1="241.1641" y2="241.1641"/><polygon fill="#181818" points="533,237.1641,523,241.1641,533,245.1641,529,241.1641" style="stroke:#181818;stroke-width:1.0;"/><line style="stroke:#181818;stroke-width:1.0;" x1="408" x2="42" y1="241.1641" y2="241.1641"/><polygon fill="#181818" points="38,1094.0313,42,1104.0313,46,1094.0313,42,1098.0313" style="stroke:#181818;stroke-width:1.0;"/><line style="stroke:#181818;stroke-width:1.0;" x1="42" x2="42" y1="241.1641" y2="1966.8984"/><line style="stroke:#181818;stroke-width:1.0;" x1="42" x2="465.5" y1="1966.8984" y2="1966.8984"/><line style="stroke:#181818;stroke-width:1.0;" x1="465.5" x2="465.5" y1="1966.8984" y2="2001.8984"/><polygon fill="#181818" points="461.5,1991.8984,465.5,2001.8984,469.5,1991.8984,465.5,1995.8984" style="stroke:#181818;stroke-width:1.0;"/><line style="stroke:#181818;stroke-width:1.0;" x1="465.5" x2="465.5" y1="174.1641" y2="229.1641"/><polygon fill="#181818" points="461.5,219.1641,465.5,229.1641,469.5,219.1641,465.5,223.1641" style="stroke:#181818;stroke-width:1.0;"/><line style="stroke:#181818;stroke-width:1.0;" x1="465.5" x2="465.5" y1="2040.3125" y2="2064.7148"/><polygon fill="#181818" points="461.5,2054.7148,465.5,2064.7148,469.5,2054.7148,465.5,2058.7148" style="stroke:#181818;stroke-width:1.0;"/><line style="stroke:#181818;stroke-width:1.0;" x1="532" x2="544" y1="2021.1055" y2="2021.1055"/><polygon fill="#181818" points="540,2068.0957,544,2078.0957,548,2068.0957,544,2072.0957" style="stroke:#181818;stroke-width:1.0;"/><line style="stroke:#181818;stroke-width:1.0;" x1="544" x2="544" y1="2021.1055" y2="2135.0859"/><line style="stroke:#181818;stroke-width:1.0;" x1="544" x2="477.5" y1="2135.0859" y2="2135.0859"/><polygon fill="#181818" points="487.5,2131.0859,477.5,2135.0859,487.5,2139.0859,483.5,2135.0859" style="stroke:#181818;stroke-width:1.0;"/><line style="stroke:#181818;stroke-width:1.0;" x1="465.5" x2="465.5" y1="2098.6836" y2="2123.0859"/><polygon fill="#181818" points="461.5,2113.0859,465.5,2123.0859,469.5,2113.0859,465.5,2117.0859" style="stroke:#181818;stroke-width:1.0;"/><line style="stroke:#181818;stroke-width:1.0;" x1="465.5" x2="465.5" y1="2147.0859" y2="2182.0859"/><polygon fill="#181818" points="461.5,2172.0859,465.5,2182.0859,469.5,2172.0859,465.5,2176.0859" style="stroke:#181818;stroke-width:1.0;"/><line style="stroke:#181818;stroke-width:1.0;" x1="465.5" x2="465.5" y1="2230.0234" y2="2265.0234"/><polygon fill="#181818" points="461.5,2255.0234,465.5,2265.0234,469.5,2255.0234,465.5,2259.0234" style="stroke:#181818;stroke-width:1.0;"/><!--SRC=[pLPHRzem47xdLvoO9j6yRLAr2TPLY4ehMhjMfNsOn8lh7CJ5iIFRWQAA_xvpqW211CYaIVC3Gh5zzzrttzqvONp6fWZjYmleXtEcE8PmYw7WJCAZGUPYL0uw-Cfb6WerXRkhipQyjO2MTSouxD_Kw3I1TX3S1W6pLimH8eorCH4PBuxxrHqvdS2pHFJ6R2_RM6M_YqX8XCxGGgguLfOBdThBCn0MEakqPsiRoGRp1JnjphRXmusOHkutIgaNMqvB2Fj18Co2BTix1_mI4-Zqirs2gFaCG_Bl8bGx2BPNzu42fNWr9uQi8330L3XM-jawatBdl_JsRgAq5AlI-pPHXMAozxKxGfuQ19QZMmWNZPL1JfxD4X9jXNS4si1FdwIRnxBBLJKN3q60DX66-SjrX5mp2ud2DDOkqeQz7cVaYMBZ4Le75fdiLHugB3jKdhHc7jPUVWskO2PSjOjwZkjvRfANCgc5V1LmPaB1E31ZY8Cg1LSgUL2wLeXvn6HCzBnLnh1EvC2BcgUoDf75ccWpgztCQBrF7GW5Das4mh4gfDKxSWiDcOvXSF_GE-WSs9G9TT2ObyOekViCt-3B-SUJnB31OVHSXEZX9n9zxsAIQl5rESKZ8HnMos7L_4M0NllCWKH6PS8bDKqO3iTgqpMRnVt3jrpB9ENiVmmprZLHvhrIUXBG2ow9J2OxeLumwvtm7Jv1BDHbCpw6sVrjc_-U5jgjhwzLw_0NklpUGNP153JIjAMv2ND1ahO56rM8j-hdwmdrqx1ccawkayH-mfWzgF36uxGVlgI4nSzHYBFdpdwJourM8ihHi9XQiqXZt_6VjM9k1rdPTvxlSfvR1KFqwg6ccr19RLK4iPD4- -LmNbyFXUwBcpcUCZivgknlzvhcConqgaBx_gQ8tzz-wwbAnrkhFm00]--></g></svg>