<?xml version="1.0" encoding="us-ascii" standalone="no"?><svg xmlns="http://www.w3.org/2000/svg" xmlns:xlink="http://www.w3.org/1999/xlink" contentStyleType="text/css" height="848px" preserveAspectRatio="none" style="width:210px;height:848px;background:#FFFFFF;" version="1.1" viewBox="0 0 210 848" width="210px" zoomAndPan="magnify"><defs/><g><rect fill="none" height="826.0073" style="stroke:#000000;stroke-width:1.5;" width="188" x="11" y="11"/><path d="M190,11 L190,20.2969 L180,30.2969 L11,30.2969 " fill="none" style="stroke:#000000;stroke-width:1.5;"/><text fill="#000000" font-family="sans-serif" font-size="14" lengthAdjust="spacing" textLength="169" x="14" y="24.9951">Basic Medical Treatment</text><ellipse cx="97" cy="50.2969" fill="#222222" rx="10" ry="10" style="stroke:#222222;stroke-width:1.0;"/><rect fill="#F1F1F1" height="47.9375" rx="12.5" ry="12.5" style="stroke:#181818;stroke-width:0.5;" width="148" x="23" y="128.6992"/><text fill="#000000" font-family="sans-serif" font-size="12" lengthAdjust="spacing" textLength="128" x="33" y="149.8379">Bandage/Tourniquet</text><text fill="#000000" font-family="sans-serif" font-size="12" lengthAdjust="spacing" textLength="48" x="33" y="163.8066">wounds</text><polygon fill="#F1F1F1" points="63,80.2969,131,80.2969,143,92.2969,131,104.2969,63,104.2969,51,92.2969,63,80.2969" style="stroke:#181818;stroke-width:0.5;"/><text fill="#000000" font-family="sans-serif" font-size="11" lengthAdjust="spacing" textLength="20" x="101" y="114.5073">yes</text><text fill="#000000" font-family="sans-serif" font-size="11" lengthAdjust="spacing" textLength="68" x="63" y="96.105">Is bleeding?</text><text fill="#000000" font-family="sans-serif" font-size="11" lengthAdjust="spacing" textLength="14" x="143" y="89.7026">no</text><polygon fill="#F1F1F1" points="97,196.6367,109,208.6367,97,220.6367,85,208.6367,97,196.6367" style="stroke:#181818;stroke-width:0.5;"/><rect fill="#F1F1F1" height="33.9688" rx="12.5" ry="12.5" style="stroke:#181818;stroke-width:0.5;" width="127" x="33.5" y="289.0391"/><text fill="#000000" font-family="sans-serif" font-size="12" lengthAdjust="spacing" textLength="107" x="43.5" y="310.1777">Administer saline</text><polygon fill="#F1F1F1" points="64.5,240.6367,129.5,240.6367,141.5,252.6367,129.5,264.6367,64.5,264.6367,52.5,252.6367,64.5,240.6367" style="stroke:#181818;stroke-width:0.5;"/><text fill="#000000" font-family="sans-serif" font-size="11" lengthAdjust="spacing" textLength="20" x="101" y="274.8472">yes</text><text fill="#000000" font-family="sans-serif" font-size="11" lengthAdjust="spacing" textLength="65" x="64.5" y="256.4448">Lost blood?</text><text fill="#000000" font-family="sans-serif" font-size="11" lengthAdjust="spacing" textLength="14" x="141.5" y="250.0425">no</text><polygon fill="#F1F1F1" points="97,343.0078,109,355.0078,97,367.0078,85,355.0078,97,343.0078" style="stroke:#181818;stroke-width:0.5;"/><rect fill="#F1F1F1" height="33.9688" rx="12.5" ry="12.5" style="stroke:#181818;stroke-width:0.5;" width="117" x="38.5" y="435.4102"/><text fill="#000000" font-family="sans-serif" font-size="12" lengthAdjust="spacing" textLength="97" x="48.5" y="456.5488">Inject morhpine</text><polygon fill="#F1F1F1" points="68,387.0078,126,387.0078,138,399.0078,126,411.0078,68,411.0078,56,399.0078,68,387.0078" style="stroke:#181818;stroke-width:0.5;"/><text fill="#000000" font-family="sans-serif" font-size="11" lengthAdjust="spacing" textLength="20" x="101" y="421.2183">yes</text><text fill="#000000" font-family="sans-serif" font-size="11" lengthAdjust="spacing" textLength="58" x="68" y="402.8159">Is in pain?</text><text fill="#000000" font-family="sans-serif" font-size="11" lengthAdjust="spacing" textLength="14" x="138" y="396.4136">no</text><polygon fill="#F1F1F1" points="97,489.3789,109,501.3789,97,513.3789,85,501.3789,97,489.3789" style="stroke:#181818;stroke-width:0.5;"/><polygon fill="#F1F1F1" points="69,533.3789,125,533.3789,137,545.3789,125,557.3789,69,557.3789,57,545.3789,69,533.3789" style="stroke:#181818;stroke-width:0.5;"/><text fill="#000000" font-family="sans-serif" font-size="11" lengthAdjust="spacing" textLength="14" x="101" y="567.5894">no</text><text fill="#000000" font-family="sans-serif" font-size="11" lengthAdjust="spacing" textLength="56" x="69" y="549.187">Is awake?</text><text fill="#000000" font-family="sans-serif" font-size="11" lengthAdjust="spacing" textLength="20" x="137" y="542.7847">yes</text><ellipse cx="177" cy="545.3789" fill="none" rx="10" ry="10" style="stroke:#222222;stroke-width:1.5;"/><line style="stroke:#222222;stroke-width:2.5;" x1="170.8128" x2="183.1872" y1="539.1917" y2="551.5661"/><line style="stroke:#222222;stroke-width:2.5;" x1="183.1872" x2="170.8128" y1="539.1917" y2="551.5661"/><rect fill="#F1F1F1" height="47.9375" rx="12.5" ry="12.5" style="stroke:#181818;stroke-width:0.5;" width="129" x="32.5" y="639.1011"/><text fill="#000000" font-family="sans-serif" font-size="12" lengthAdjust="spacing" textLength="109" x="42.5" y="660.2397">Heal wounds with</text><text fill="#000000" font-family="sans-serif" font-size="12" lengthAdjust="spacing" textLength="67" x="42.5" y="674.2085">medical kit</text><polygon fill="#F1F1F1" points="55,589.0894,139,589.0894,151,601.894,139,614.6987,55,614.6987,43,601.894,55,589.0894" style="stroke:#181818;stroke-width:0.5;"/><text fill="#000000" font-family="sans-serif" font-size="11" lengthAdjust="spacing" textLength="20" x="101" y="624.9092">yes</text><text fill="#000000" font-family="sans-serif" font-size="11" lengthAdjust="spacing" textLength="84" x="55" y="599.2998">Too injured for</text><text fill="#000000" font-family="sans-serif" font-size="11" lengthAdjust="spacing" textLength="73" x="55" y="612.1045">epinephrine?</text><text fill="#000000" font-family="sans-serif" font-size="11" lengthAdjust="spacing" textLength="14" x="151" y="599.2998">no</text><polygon fill="#F1F1F1" points="97,707.0386,109,719.0386,97,731.0386,85,719.0386,97,707.0386" style="stroke:#181818;stroke-width:0.5;"/><rect fill="#F1F1F1" height="33.9688" rx="12.5" ry="12.5" style="stroke:#181818;stroke-width:0.5;" width="133" x="30.5" y="751.0386"/><text fill="#000000" font-family="sans-serif" font-size="12" lengthAdjust="spacing" textLength="113" x="40.5" y="772.1772">Inject epinephrine</text><ellipse cx="97" cy="815.0073" fill="none" rx="10" ry="10" style="stroke:#222222;stroke-width:1.5;"/><line style="stroke:#222222;stroke-width:2.5;" x1="90.8128" x2="103.1872" y1="808.8201" y2="821.1945"/><line style="stroke:#222222;stroke-width:2.5;" x1="103.1872" x2="90.8128" y1="808.8201" y2="821.1945"/><line style="stroke:#181818;stroke-width:1.0;" x1="97" x2="97" y1="104.2969" y2="128.6992"/><polygon fill="#181818" points="93,118.6992,97,128.6992,101,118.6992,97,122.6992" style="stroke:#181818;stroke-width:1.0;"/><line style="stroke:#181818;stroke-width:1.0;" x1="143" x2="181" y1="92.2969" y2="92.2969"/><polygon fill="#181818" points="177,142.668,181,152.668,185,142.668,181,146.668" style="stroke:#181818;stroke-width:1.0;"/><line style="stroke:#181818;stroke-width:1.0;" x1="181" x2="181" y1="92.2969" y2="208.6367"/><line style="stroke:#181818;stroke-width:1.0;" x1="181" x2="109" y1="208.6367" y2="208.6367"/><polygon fill="#181818" points="119,204.6367,109,208.6367,119,212.6367,115,208.6367" style="stroke:#181818;stroke-width:1.0;"/><line style="stroke:#181818;stroke-width:1.0;" x1="97" x2="97" y1="176.6367" y2="196.6367"/><polygon fill="#181818" points="93,186.6367,97,196.6367,101,186.6367,97,190.6367" style="stroke:#181818;stroke-width:1.0;"/><line style="stroke:#181818;stroke-width:1.0;" x1="97" x2="97" y1="60.2969" y2="80.2969"/><polygon fill="#181818" points="93,70.2969,97,80.2969,101,70.2969,97,74.2969" style="stroke:#181818;stroke-width:1.0;"/><line style="stroke:#181818;stroke-width:1.0;" x1="97" x2="97" y1="264.6367" y2="289.0391"/><polygon fill="#181818" points="93,279.0391,97,289.0391,101,279.0391,97,283.0391" style="stroke:#181818;stroke-width:1.0;"/><line style="stroke:#181818;stroke-width:1.0;" x1="141.5" x2="170.5" y1="252.6367" y2="252.6367"/><polygon fill="#181818" points="166.5,296.0234,170.5,306.0234,174.5,296.0234,170.5,300.0234" style="stroke:#181818;stroke-width:1.0;"/><line style="stroke:#181818;stroke-width:1.0;" x1="170.5" x2="170.5" y1="252.6367" y2="355.0078"/><line style="stroke:#181818;stroke-width:1.0;" x1="170.5" x2="109" y1="355.0078" y2="355.0078"/><polygon fill="#181818" points="119,351.0078,109,355.0078,119,359.0078,115,355.0078" style="stroke:#181818;stroke-width:1.0;"/><line style="stroke:#181818;stroke-width:1.0;" x1="97" x2="97" y1="323.0078" y2="343.0078"/><polygon fill="#181818" points="93,333.0078,97,343.0078,101,333.0078,97,337.0078" style="stroke:#181818;stroke-width:1.0;"/><line style="stroke:#181818;stroke-width:1.0;" x1="97" x2="97" y1="220.6367" y2="240.6367"/><polygon fill="#181818" points="93,230.6367,97,240.6367,101,230.6367,97,234.6367" style="stroke:#181818;stroke-width:1.0;"/><line style="stroke:#181818;stroke-width:1.0;" x1="97" x2="97" y1="411.0078" y2="435.4102"/><polygon fill="#181818" points="93,425.4102,97,435.4102,101,425.4102,97,429.4102" style="stroke:#181818;stroke-width:1.0;"/><line style="stroke:#181818;stroke-width:1.0;" x1="138" x2="165.5" y1="399.0078" y2="399.0078"/><polygon fill="#181818" points="161.5,442.3945,165.5,452.3945,169.5,442.3945,165.5,446.3945" style="stroke:#181818;stroke-width:1.0;"/><line style="stroke:#181818;stroke-width:1.0;" x1="165.5" x2="165.5" y1="399.0078" y2="501.3789"/><line style="stroke:#181818;stroke-width:1.0;" x1="165.5" x2="109" y1="501.3789" y2="501.3789"/><polygon fill="#181818" points="119,497.3789,109,501.3789,119,505.3789,115,501.3789" style="stroke:#181818;stroke-width:1.0;"/><line style="stroke:#181818;stroke-width:1.0;" x1="97" x2="97" y1="469.3789" y2="489.3789"/><polygon fill="#181818" points="93,479.3789,97,489.3789,101,479.3789,97,483.3789" style="stroke:#181818;stroke-width:1.0;"/><line style="stroke:#181818;stroke-width:1.0;" x1="97" x2="97" y1="367.0078" y2="387.0078"/><polygon fill="#181818" points="93,377.0078,97,387.0078,101,377.0078,97,381.0078" style="stroke:#181818;stroke-width:1.0;"/><line style="stroke:#181818;stroke-width:1.0;" x1="97" x2="97" y1="557.3789" y2="589.0894"/><polygon fill="#181818" points="93,579.0894,97,589.0894,101,579.0894,97,583.0894" style="stroke:#181818;stroke-width:1.0;"/><line style="stroke:#181818;stroke-width:1.0;" x1="137" x2="167" y1="545.3789" y2="545.3789"/><polygon fill="#181818" points="157,541.3789,167,545.3789,157,549.3789,161,545.3789" style="stroke:#181818;stroke-width:1.0;"/><line style="stroke:#181818;stroke-width:1.0;" x1="97" x2="97" y1="513.3789" y2="533.3789"/><polygon fill="#181818" points="93,523.3789,97,533.3789,101,523.3789,97,527.3789" style="stroke:#181818;stroke-width:1.0;"/><line style="stroke:#181818;stroke-width:1.0;" x1="97" x2="97" y1="614.6987" y2="639.1011"/><polygon fill="#181818" points="93,629.1011,97,639.1011,101,629.1011,97,633.1011" style="stroke:#181818;stroke-width:1.0;"/><line style="stroke:#181818;stroke-width:1.0;" x1="151" x2="171.5" y1="601.894" y2="601.894"/><polygon fill="#181818" points="167.5,652.6675,171.5,662.6675,175.5,652.6675,171.5,656.6675" style="stroke:#181818;stroke-width:1.0;"/><line style="stroke:#181818;stroke-width:1.0;" x1="171.5" x2="171.5" y1="601.894" y2="719.0386"/><line style="stroke:#181818;stroke-width:1.0;" x1="171.5" x2="109" y1="719.0386" y2="719.0386"/><polygon fill="#181818" points="119,715.0386,109,719.0386,119,723.0386,115,719.0386" style="stroke:#181818;stroke-width:1.0;"/><line style="stroke:#181818;stroke-width:1.0;" x1="97" x2="97" y1="687.0386" y2="707.0386"/><polygon fill="#181818" points="93,697.0386,97,707.0386,101,697.0386,97,701.0386" style="stroke:#181818;stroke-width:1.0;"/><line style="stroke:#181818;stroke-width:1.0;" x1="97" x2="97" y1="731.0386" y2="751.0386"/><polygon fill="#181818" points="93,741.0386,97,751.0386,101,741.0386,97,745.0386" style="stroke:#181818;stroke-width:1.0;"/><line style="stroke:#181818;stroke-width:1.0;" x1="97" x2="97" y1="785.0073" y2="805.0073"/><polygon fill="#181818" points="93,795.0073,97,805.0073,101,795.0073,97,799.0073" style="stroke:#181818;stroke-width:1.0;"/><!--SRC=[ZP6nQiD038PtFuN8v4pTco4qKmFjvj6BwfDZ9RRadcHCA7ttAgI1GjtGvH3ekq__wKRCpiugiDgXSGElbBZ17gfCw0E9h-2Z030Fi8Y2MoZt1cyz1IY7xHgy8u7oJBQEDi3Z3YNXWHugdRBm-qHUowoJ9Di4GBqHbA8Nc2HnUvE-g7beLTE2yoaDB6nE6Gnx5hghYdmiC2BBWcelHseS1itT-0yHpdYYtvh0xbsiL2F2SSgKeDLS2rrcZLsESo7JCyN6hpk2cRshPVZ-XXFxdmblJ_dXtbpxnUSN]--></g></svg>