<?xml version="1.0" encoding="us-ascii" standalone="no"?><svg xmlns="http://www.w3.org/2000/svg" xmlns:xlink="http://www.w3.org/1999/xlink" contentStyleType="text/css" height="619px" preserveAspectRatio="none" style="width:225px;height:619px;background:#FFFFFF;" version="1.1" viewBox="0 0 225 619" width="225px" zoomAndPan="magnify"><defs/><g><rect fill="none" height="597.832" style="stroke:#000000;stroke-width:1.5;" width="203" x="11" y="11"/><path d="M142,11 L142,36.5938 L132,46.5938 L11,46.5938 " fill="none" style="stroke:#000000;stroke-width:1.5;"/><text fill="#000000" font-family="sans-serif" font-size="14" lengthAdjust="spacing" textLength="121" x="14" y="24.9951">Heal wounds with</text><text fill="#000000" font-family="sans-serif" font-size="14" lengthAdjust="spacing" textLength="73" x="14" y="41.292">medical kit</text><ellipse cx="99" cy="66.5938" fill="#222222" rx="10" ry="10" style="stroke:#222222;stroke-width:1.0;"/><rect fill="#F1F1F1" height="47.9375" rx="12.5" ry="12.5" style="stroke:#181818;stroke-width:0.5;" width="134" x="32" y="195.0078"/><text fill="#000000" font-family="sans-serif" font-size="12" lengthAdjust="spacing" textLength="114" x="42" y="216.1465">Carry/Transport to</text><text fill="#000000" font-family="sans-serif" font-size="12" lengthAdjust="spacing" textLength="105" x="42" y="230.1152">nearest supplies</text><polygon fill="#F1F1F1" points="49,146.6055,149,146.6055,161,158.6055,149,170.6055,49,170.6055,37,158.6055,49,146.6055" style="stroke:#181818;stroke-width:0.5;"/><text fill="#000000" font-family="sans-serif" font-size="11" lengthAdjust="spacing" textLength="14" x="103" y="180.8159">no</text><text fill="#000000" font-family="sans-serif" font-size="11" lengthAdjust="spacing" textLength="100" x="49" y="162.4136">Supplies in range</text><text fill="#000000" font-family="sans-serif" font-size="11" lengthAdjust="spacing" textLength="20" x="161" y="156.0112">yes</text><polygon fill="#F1F1F1" points="99,262.9453,111,274.9453,99,286.9453,87,274.9453,99,262.9453" style="stroke:#181818;stroke-width:0.5;"/><polygon fill="#F1F1F1" points="49.5,96.5938,148.5,96.5938,160.5,109.3984,148.5,122.2031,49.5,122.2031,37.5,109.3984,49.5,96.5938" style="stroke:#181818;stroke-width:0.5;"/><text fill="#000000" font-family="sans-serif" font-size="11" lengthAdjust="spacing" textLength="14" x="103" y="132.4136">no</text><text fill="#000000" font-family="sans-serif" font-size="11" lengthAdjust="spacing" textLength="72" x="49.5" y="106.8042">Can be used</text><text fill="#000000" font-family="sans-serif" font-size="11" lengthAdjust="spacing" textLength="99" x="49.5" y="119.6089">without supplies?</text><text fill="#000000" font-family="sans-serif" font-size="11" lengthAdjust="spacing" textLength="20" x="160.5" y="106.8042">yes</text><polygon fill="#F1F1F1" points="99,306.9453,111,318.9453,99,330.9453,87,318.9453,99,306.9453" style="stroke:#181818;stroke-width:0.5;"/><rect fill="#F1F1F1" height="33.9688" rx="12.5" ry="12.5" style="stroke:#181818;stroke-width:0.5;" width="152" x="23" y="350.9453"/><text fill="#000000" font-family="sans-serif" font-size="12" lengthAdjust="spacing" textLength="132" x="33" y="372.084">Partially heal wounds</text><rect fill="#F1F1F1" height="47.9375" rx="12.5" ry="12.5" style="stroke:#181818;stroke-width:0.5;" width="134" x="32" y="454.9258"/><text fill="#000000" font-family="sans-serif" font-size="12" lengthAdjust="spacing" textLength="114" x="42" y="476.0645">Carry/Transport to</text><text fill="#000000" font-family="sans-serif" font-size="12" lengthAdjust="spacing" textLength="91" x="42" y="490.0332">medical facility</text><rect fill="#F1F1F1" height="33.9688" rx="12.5" ry="12.5" style="stroke:#181818;stroke-width:0.5;" width="100" x="49" y="522.8633"/><text fill="#000000" font-family="sans-serif" font-size="12" lengthAdjust="spacing" textLength="80" x="59" y="544.002">Heal wounds</text><ellipse cx="99" cy="586.832" fill="none" rx="10" ry="10" style="stroke:#222222;stroke-width:1.5;"/><line style="stroke:#222222;stroke-width:2.5;" x1="92.8128" x2="105.1872" y1="580.6448" y2="593.0192"/><line style="stroke:#222222;stroke-width:2.5;" x1="105.1872" x2="92.8128" y1="580.6448" y2="593.0192"/><polygon fill="#F1F1F1" points="52.5,404.9141,145.5,404.9141,157.5,417.7188,145.5,430.5234,52.5,430.5234,40.5,417.7188,52.5,404.9141" style="stroke:#181818;stroke-width:0.5;"/><text fill="#000000" font-family="sans-serif" font-size="11" lengthAdjust="spacing" textLength="20" x="103" y="440.7339">yes</text><text fill="#000000" font-family="sans-serif" font-size="11" lengthAdjust="spacing" textLength="86" x="52.5" y="415.1245">Still too injured</text><text fill="#000000" font-family="sans-serif" font-size="11" lengthAdjust="spacing" textLength="93" x="52.5" y="427.9292">for epinephrine?</text><text fill="#000000" font-family="sans-serif" font-size="11" lengthAdjust="spacing" textLength="14" x="157.5" y="415.1245">no</text><ellipse cx="191.5" cy="417.7188" fill="none" rx="10" ry="10" style="stroke:#222222;stroke-width:1.5;"/><line style="stroke:#222222;stroke-width:2.5;" x1="185.3128" x2="197.6872" y1="411.5316" y2="423.9059"/><line style="stroke:#222222;stroke-width:2.5;" x1="197.6872" x2="185.3128" y1="411.5316" y2="423.9059"/><line style="stroke:#181818;stroke-width:1.0;" x1="99" x2="99" y1="170.6055" y2="195.0078"/><polygon fill="#181818" points="95,185.0078,99,195.0078,103,185.0078,99,189.0078" style="stroke:#181818;stroke-width:1.0;"/><line style="stroke:#181818;stroke-width:1.0;" x1="161" x2="176" y1="158.6055" y2="158.6055"/><polygon fill="#181818" points="172,208.9766,176,218.9766,180,208.9766,176,212.9766" style="stroke:#181818;stroke-width:1.0;"/><line style="stroke:#181818;stroke-width:1.0;" x1="176" x2="176" y1="158.6055" y2="274.9453"/><line style="stroke:#181818;stroke-width:1.0;" x1="176" x2="111" y1="274.9453" y2="274.9453"/><polygon fill="#181818" points="121,270.9453,111,274.9453,121,278.9453,117,274.9453" style="stroke:#181818;stroke-width:1.0;"/><line style="stroke:#181818;stroke-width:1.0;" x1="99" x2="99" y1="242.9453" y2="262.9453"/><polygon fill="#181818" points="95,252.9453,99,262.9453,103,252.9453,99,256.9453" style="stroke:#181818;stroke-width:1.0;"/><line style="stroke:#181818;stroke-width:1.0;" x1="99" x2="99" y1="122.2031" y2="146.6055"/><polygon fill="#181818" points="95,136.6055,99,146.6055,103,136.6055,99,140.6055" style="stroke:#181818;stroke-width:1.0;"/><line style="stroke:#181818;stroke-width:1.0;" x1="160.5" x2="198" y1="109.3984" y2="109.3984"/><polygon fill="#181818" points="194,208.5742,198,218.5742,202,208.5742,198,212.5742" style="stroke:#181818;stroke-width:1.0;"/><line style="stroke:#181818;stroke-width:1.0;" x1="198" x2="198" y1="109.3984" y2="318.9453"/><line style="stroke:#181818;stroke-width:1.0;" x1="198" x2="111" y1="318.9453" y2="318.9453"/><polygon fill="#181818" points="121,314.9453,111,318.9453,121,322.9453,117,318.9453" style="stroke:#181818;stroke-width:1.0;"/><line style="stroke:#181818;stroke-width:1.0;" x1="99" x2="99" y1="286.9453" y2="306.9453"/><polygon fill="#181818" points="95,296.9453,99,306.9453,103,296.9453,99,300.9453" style="stroke:#181818;stroke-width:1.0;"/><line style="stroke:#181818;stroke-width:1.0;" x1="99" x2="99" y1="76.5938" y2="96.5938"/><polygon fill="#181818" points="95,86.5938,99,96.5938,103,86.5938,99,90.5938" style="stroke:#181818;stroke-width:1.0;"/><line style="stroke:#181818;stroke-width:1.0;" x1="99" x2="99" y1="330.9453" y2="350.9453"/><polygon fill="#181818" points="95,340.9453,99,350.9453,103,340.9453,99,344.9453" style="stroke:#181818;stroke-width:1.0;"/><line style="stroke:#181818;stroke-width:1.0;" x1="99" x2="99" y1="502.8633" y2="522.8633"/><polygon fill="#181818" points="95,512.8633,99,522.8633,103,512.8633,99,516.8633" style="stroke:#181818;stroke-width:1.0;"/><line style="stroke:#181818;stroke-width:1.0;" x1="99" x2="99" y1="556.832" y2="576.832"/><polygon fill="#181818" points="95,566.832,99,576.832,103,566.832,99,570.832" style="stroke:#181818;stroke-width:1.0;"/><line style="stroke:#181818;stroke-width:1.0;" x1="99" x2="99" y1="430.5234" y2="454.9258"/><polygon fill="#181818" points="95,444.9258,99,454.9258,103,444.9258,99,448.9258" style="stroke:#181818;stroke-width:1.0;"/><line style="stroke:#181818;stroke-width:1.0;" x1="157.5" x2="181.5" y1="417.7188" y2="417.7188"/><polygon fill="#181818" points="171.5,413.7188,181.5,417.7188,171.5,421.7188,175.5,417.7188" style="stroke:#181818;stroke-width:1.0;"/><line style="stroke:#181818;stroke-width:1.0;" x1="99" x2="99" y1="384.9141" y2="404.9141"/><polygon fill="#181818" points="95,394.9141,99,404.9141,103,394.9141,99,398.9141" style="stroke:#181818;stroke-width:1.0;"/><!--SRC=[RP0nRy9038LtViKJKvZOmy30mbY9Zbckn6bC3z_fx1EAglxtNaYg2EXoFbdlsTzpTCdOE0ZMHt8Ujv2bLTpO-aQkrFAvDB_OrlXU0Mf5NYftg0vEy478IcqZepvaW-OOFPFkDx2U1DL0kYa6yage98p_oNwQbM11Sl99Juvd3r0VN4h3zhseDOPaiD28a4kao-BTP9MMkzLIwxSnflD-GB-atCr9JiRUbscXi5no6lDq8O4Y2yK-bNV_0lSlpD-zEdTcppPCCFNnSUKTw-KcS-yE_FCB]--></g></svg>